<svg xmlns="http://www.w3.org/2000/svg" version="1.1" xmlns:xlink="http://www.w3.org/1999/xlink" xmlns:svgjs="http://svgjs.com/svgjs" width="1440" height="560" preserveAspectRatio="none" viewBox="0 0 1440 560"><g mask="url(&quot;#SvgjsMask1001&quot;)" fill="none"><path d="M140 126.39C130.52 126.39 124.92 132.4 124.92 140C124.92 149.63 128.8 160.85 140 160.85C174.03 160.85 215.38 148.7 215.38 140C215.38 131.47 175.75 126.39 140 126.39" stroke="rgba(51, 121, 194, 0.58)" stroke-width="2"></path><path d="M258.18 0C289.53 20.9 267.75 93.33 280 93.33C292.43 93.33 275.07 21.65 307.54 0C345.07 -25.02 363.77 0 420 0C467.64 0 480.02 -20.79 515.28 0C550.02 20.49 537.39 82.56 560 82.56C582.75 82.56 570.91 20.7 606 0C640.91 -20.58 653 0 700 0C765.8 0 780.14 -17.15 831.6 0C850.14 6.18 836.14 46.67 840 46.67C843.84 46.67 828.67 6.11 847 0C898.67 -17.22 913.5 0 980 0C1050 0 1050 0 1120 0C1190 0 1190 0 1260 0C1330 0 1330 0 1400 0C1470 0 1505 -35 1540 0C1575 35 1540 70 1540 140C1540 210 1540 210 1540 280C1540 350 1540 350 1540 420C1540 490 1575 525 1540 560C1505 595 1470 560 1400 560C1360 560 1346.92 581.74 1320 560C1276.92 525.2 1288.5 446.92 1260 446.92C1232.25 446.92 1248.63 526.78 1207.5 560C1178.63 583.32 1163.75 560 1120 560C1050 560 1050 560 980 560C910 560 910 560 840 560C770 560 770 560 700 560C630 560 630 560 560 560C527.34 560 494.67 571.11 494.67 560C494.67 545.98 532.53 539.82 560 509.74C596.45 469.82 587.86 462.09 622.5 420C657.86 377.03 663.47 381.69 700 339.63C724.27 311.69 736.03 314.56 744.11 280C759.36 214.75 763.15 195.43 746.67 140C741.09 121.23 722.95 131.6 700 131.6C688.56 131.6 685.52 131.21 677.89 140C621.12 205.41 625.44 210.81 571.2 280C566.5 286 565.55 290.37 560 290.37C554.56 290.37 555.18 284.52 549.23 280C485.18 231.33 470.06 184 420 184C388.3 184 385.71 233.04 385.71 280C385.71 315.32 397.37 318.19 420 348.57C449.52 388.19 490 382.74 490 420C490 461.14 451.84 460.56 420 505.37C402.1 530.56 415.7 550.18 390.53 560C345.7 577.49 335.26 560 280 560C220 560 217.52 566.85 160 560C147.52 558.51 150.17 551.46 140 543.33C70.17 487.54 65.54 489.9 0 432.17C-4.46 428.24 0 426.09 0 420C0 350 0 350 0 280C0 210 0 210 0 140C0 70 -35 35 0 0C35 -35 70 0 140 0C199.09 0 219.53 -25.77 258.18 0" stroke="rgba(51, 121, 194, 0.58)" stroke-width="2"></path><path d="M980 133C957.63 133 933.33 136.88 933.33 140C933.33 143.11 957.29 145.45 980 145.45C984.91 145.45 988.57 142.98 988.57 140C988.57 136.75 985.25 133 980 133" stroke="rgba(51, 121, 194, 0.58)" stroke-width="2"></path><path d="M1260 100.51C1245.68 100.51 1232.98 121.57 1232.98 140C1232.98 154.59 1245.92 166.55 1260 166.55C1275.47 166.55 1292.08 154.86 1292.08 140C1292.08 121.84 1275.23 100.51 1260 100.51" stroke="rgba(51, 121, 194, 0.58)" stroke-width="2"></path><path d="M1120 245.57C1106.68 245.57 1099.19 259.97 1096.4 280C1087.05 347.18 1086.8 352.69 1095.73 420C1098.6 441.65 1101.55 457.92 1120 457.92C1164.24 457.92 1214.16 456.49 1221.11 420C1231.1 367.53 1192.43 346.53 1153.87 280C1141.88 259.31 1135.41 245.57 1120 245.57" stroke="rgba(51, 121, 194, 0.58)" stroke-width="2"></path><path d="M840 400.69C827.03 400.69 811.28 407.88 811.28 420C811.28 436.85 828.03 458.62 840 458.62C850.39 458.62 856 438.1 856 420C856 409.14 849.39 400.69 840 400.69" stroke="rgba(51, 121, 194, 0.58)" stroke-width="2"></path><path d="M1400 376.92C1365.24 376.92 1313.85 400.99 1313.85 420C1313.85 438.08 1362.88 451.11 1400 451.11C1414.31 451.11 1416.72 436.07 1416.72 420C1416.72 398.97 1416.68 376.92 1400 376.92" stroke="rgba(51, 121, 194, 0.58)" stroke-width="2"></path><path d="M140 77.78C107.01 110.39 71.08 105.25 71.08 140C71.08 184.02 94.24 226.75 140 235.32C198.7 246.31 222.11 166.8 280 179.12C327.11 189.14 319.23 227.05 350 280C389.23 347.49 421.37 350.57 420 420C418.61 490.57 394.28 510.19 344.47 560C324.28 580.19 312.24 560 280 560C245 560 240.41 572.67 210 560C170.41 543.51 174.76 531.12 140 501.67C92.12 461.12 69.5 472.32 44.72 420C17 361.49 52.44 341.79 35 280C30.08 262.58 4.3 278.76 0 261.58C-13.2 208.76 0 200.79 0 140C0 70 -35 35 0 0C35 -35 70 0 140 0C176.37 0 212.73 -15.78 212.73 0C212.73 23.11 177.83 40.39 140 77.78" stroke="rgba(51, 121, 194, 0.58)" stroke-width="2"></path><path d="M420 88.42C394.04 88.42 364.92 28.92 364.92 0C364.92 -15.29 392.46 0 420 0C443.34 0 466.67 -14.07 466.67 0C466.67 30.14 444.92 88.42 420 88.42" stroke="rgba(51, 121, 194, 0.58)" stroke-width="2"></path><path d="M700 61.6C675.45 61.6 656 19.48 656 0C656 -11.32 678 0 700 0C730.8 0 761.6 -12.76 761.6 0C761.6 18.04 728.25 61.6 700 61.6" stroke="rgba(51, 121, 194, 0.58)" stroke-width="2"></path><path d="M980 74.67C940.9 39.28 905.33 21.87 905.33 0C905.33 -15.46 942.66 0 980 0C1050 0 1050 0 1120 0C1190 0 1190 0 1260 0C1330 0 1330 0 1400 0C1427.22 0 1446.05 -19.59 1454.44 0C1476.05 50.41 1433.76 85.61 1460 140C1476.54 174.27 1521.51 144.97 1540 177.33C1561.51 214.97 1540 228.67 1540 280C1540 350 1540 350 1540 420C1540 490 1540 490 1540 560C1540 560 1540 560 1540 560C1470 560 1470 560 1400 560C1395.72 560 1391.43 562.17 1391.43 560C1391.43 556.33 1396.5 554.66 1400 548.33C1435.26 484.66 1464.2 486.42 1468.96 420C1473.81 352.26 1444.38 349.89 1419.22 280C1409.9 254.1 1409.94 254.08 1400 228.42C1382.83 184.08 1390.45 179.56 1365 140C1320.45 70.73 1309.84 10.77 1260 10.77C1213.13 10.77 1219.83 78.85 1171.58 140C1149.83 167.57 1142.22 161.03 1120 188.2C1084.97 231.03 1072.77 228.72 1057.08 280C1037.31 344.62 1068.91 354.96 1049.07 420C1030.37 481.27 1015.41 532.61 980 532.61C943.88 532.61 945.6 474.38 906 420C875.6 378.25 872.65 380.45 840 340.34C815.67 310.45 792.05 311.72 792.05 280C792.05 241.77 802.57 218.19 840 200.45C896.55 173.65 914.36 208.95 980 190.91C1024.36 178.72 1060 167.82 1060 140C1060 109.7 1018.24 109.28 980 74.67" stroke="rgba(51, 121, 194, 0.58)" stroke-width="2"></path><path d="M1210.32 280C1210.32 251.5 1230.4 226.9 1260 226.9C1308.34 226.9 1366.21 249.71 1366.21 280C1366.21 312.92 1306.22 353.33 1260 353.33C1228.28 353.33 1210.32 314.72 1210.32 280" stroke="rgba(51, 121, 194, 0.58)" stroke-width="2"></path><path d="M685 420C690.54 410.77 691.81 404.44 700 404.44C710.08 404.44 713.54 409.5 721.54 420C772.77 487.28 824.81 518.72 818.46 560C814.04 588.72 759.23 560 700 560C653.34 560 609.43 585.75 606.67 560C601.93 515.75 643.88 488.55 685 420" stroke="rgba(51, 121, 194, 0.58)" stroke-width="2"></path><path d="M1046.32 560C1046.32 552.44 1086.77 530.83 1120 530.83C1136.11 530.83 1145 551.16 1145 560C1145 565.75 1132.5 560 1120 560C1083.16 560 1046.32 567.03 1046.32 560" stroke="rgba(51, 121, 194, 0.58)" stroke-width="2"></path><path d="M0 95.2C4.46 95.2 17.23 118.3 17.23 140C17.23 155.43 4.62 169.47 0 169.47C-3.99 169.47 0 154.74 0 140C0 117.6 -4.16 95.2 0 95.2" stroke="rgba(51, 121, 194, 0.58)" stroke-width="2"></path><path d="M140 29.17C110.15 29.17 74.38 7.62 74.38 0C74.38 -6.96 107.19 0 140 0C153.63 0 167.27 -5.92 167.27 0C167.27 8.67 156.6 29.17 140 29.17" stroke="rgba(51, 121, 194, 0.58)" stroke-width="2"></path><path d="M980 16.33C970.63 9.62 963.67 4.78 963.67 0C963.67 -3.38 971.84 0 980 0C1050 0 1050 0 1120 0C1149.47 0 1178.95 -17.79 1178.95 0C1178.95 38.21 1162.52 108.51 1120 112C1063.04 116.68 1048.8 65.62 980 16.33" stroke="rgba(51, 121, 194, 0.58)" stroke-width="2"></path><path d="M181.18 280C227.02 250.34 236.9 230.59 280 230.59C303.46 230.59 304.4 252.07 314.29 280C337.94 346.77 350.99 351.06 347.08 420C343.05 491.06 328.25 497.74 298.42 560C294.71 567.74 289.21 560 280 560C270 560 267.95 565.68 260 560C197.95 515.68 199.8 510.23 140 460C116.47 440.23 93.33 444.99 93.33 420C93.33 375.58 111.34 366.85 140 321.18C155.27 296.85 157.02 295.63 181.18 280" stroke="rgba(51, 121, 194, 0.58)" stroke-width="2"></path><path d="M840 280C845.36 239.01 916.22 236.36 980 236.36C1005.1 236.36 1014.49 253.31 1017.75 280C1025.69 345.13 1016.87 352.33 1002.4 420C998 440.59 991.49 456.52 980 456.52C968.29 456.52 969.56 437.1 956 420C899.56 348.84 833.36 330.83 840 280" stroke="rgba(51, 121, 194, 0.58)" stroke-width="2"></path><path d="M1487.84 280C1490.87 250.29 1524.17 235.67 1540 235.67C1550.25 235.67 1540 257.84 1540 280C1540 350 1540 350 1540 420C1540 438.53 1544.43 457.06 1540 457.06C1535.03 457.06 1527.03 439.84 1521.19 420C1500.95 351.31 1481.47 342.46 1487.84 280" stroke="rgba(51, 121, 194, 0.58)" stroke-width="2"></path></g><defs><mask id="SvgjsMask1001"><rect width="1440" height="560" fill="#ffffff"></rect></mask></defs></svg>