<?xml version="1.0" standalone="no"?><svg xmlns:xlink="http://www.w3.org/1999/xlink" xmlns="http://www.w3.org/2000/svg" viewBox="0 0 1000 1153.8452425799696" preserveAspectRatio="xMaxYMax slice"><g transform="scale(2.36929207921965)"><rect x="0" y="0" width="454.53333333333336" height="487" fill="#ffffff"/><rect x="0" y="0" width="32.47" height="32.47" fill="#404040"/><path d="M 0 32.47 A 32.47 32.47 0 0 1  32.47 0 L 32.47 32.47" fill="#7b7b7b"/><rect x="32.47" y="0" width="32.47" height="32.47" fill="#ac6ff6"/><path d="M 32.47 0 A 32.47 32.47 0 0 1 64.94 32.47 L 32.47 32.47" fill="#949494"/><rect x="64.93" y="0" width="32.47" height="32.47" fill="#be8ff8"/><path d="M 64.93 32.47 A 32.47 32.47 0 0 0 97.4 0 L 64.93 0" fill="#dec6fc"/><rect x="97.4" y="0" width="32.47" height="32.47" fill="#e3e3e3"/><rect x="97.4" y="0" width="32.47" height="32.47" fill="#444444"/><rect x="129.87" y="0" width="32.47" height="32.47" fill="#cbcbcb"/><rect x="129.87" y="0" width="32.47" height="32.47" fill="#a25ff5"/><rect x="162.33" y="0" width="32.47" height="32.47" fill="#9c54f5"/><path d="M 162.33 0 A 32.47 32.47 0 0 0 194.8 32.47 L 194.8 0" fill="#d0affa"/><rect x="194.8" y="0" width="32.47" height="32.47" fill="#c0c0c0"/><rect x="194.8" y="0" width="32.47" height="32.47" fill="#a1a1a1"/><rect x="227.27" y="0" width="32.47" height="32.47" fill="#313131"/><rect x="227.27" y="0" width="32.47" height="32.47" fill="#b3b3b3"/><rect x="259.73" y="0" width="32.47" height="32.47" fill="#8e3cf3"/><polygon points="259.73,0 292.20000000000005,0 292.20000000000005,32.47" fill="#c8c8c8"/><rect x="292.2" y="0" width="32.47" height="32.47" fill="#323232"/><polygon points="324.66999999999996,0 324.66999999999996,32.47 292.2,32.47" fill="#a05af5"/><rect x="324.67" y="0" width="32.47" height="32.47" fill="#6f6f6f"/><rect x="324.67" y="0" width="32.47" height="32.47" fill="#acacac"/><rect x="357.13" y="0" width="32.47" height="32.47" fill="#7c7c7c"/><polygon points="357.13,0 389.6,32.47 357.13,32.47" fill="#f5edfe"/><rect x="389.6" y="0" width="32.47" height="32.47" fill="#e7e7e7"/><path d="M 389.6 32.47 A 32.47 32.47 0 0 1  422.07000000000005 0 L 422.07000000000005 32.47" fill="#636363"/><rect x="422.07" y="0" width="32.47" height="32.47" fill="#8832f3"/><polygon points="454.53999999999996,0 454.53999999999996,32.47 422.07,32.47" fill="#d7b9fb"/><rect x="0" y="32.47" width="32.47" height="32.47" fill="#7f22f2"/><path d="M 0 32.47 A 32.47 32.47 0 0 1  32.47 64.94 L 0 32.47 A 32.47 32.47 0 0 0 32.47 64.94" fill="#111111"/><rect x="32.47" y="32.47" width="32.47" height="32.47" fill="#8d3af3"/><polygon points="32.47,32.47 64.94,32.47 64.94,64.94" fill="#fefeff"/><rect x="64.93" y="32.47" width="32.47" height="32.47" fill="#e3e3e3"/><rect x="64.93" y="32.47" width="32.47" height="32.47" fill="#e6e6e6"/><rect x="97.4" y="32.47" width="32.47" height="32.47" fill="#a868f6"/><rect x="97.4" y="32.47" width="32.47" height="32.47" fill="#9f59f5"/><rect x="129.87" y="32.47" width="32.47" height="32.47" fill="#b782f8"/><rect x="129.87" y="32.47" width="32.47" height="32.47" fill="#7e20f2"/><rect x="162.33" y="32.47" width="32.47" height="32.47" fill="#2c2c2c"/><path d="M 162.33 64.94 A 32.47 32.47 0 0 0 194.8 32.47 L 162.33 32.47" fill="#aaaaaa"/><rect x="194.8" y="32.47" width="32.47" height="32.47" fill="#cacaca"/><path d="M 194.8 64.94 A 32.47 32.47 0 0 0 227.27 32.47 L 194.8 32.47" fill="#d9befb"/><rect x="227.27" y="32.47" width="32.47" height="32.47" fill="#fbf7ff"/><rect x="227.27" y="32.47" width="32.47" height="32.47" fill="#cfabfa"/><rect x="259.73" y="32.47" width="32.47" height="32.47" fill="#d3d3d3"/><rect x="259.73" y="32.47" width="32.47" height="32.47" fill="#e1e1e1"/><rect x="292.2" y="32.47" width="32.47" height="32.47" fill="#d5b7fb"/><polygon points="324.66999999999996,32.47 324.66999999999996,64.94 292.2,64.94" fill="#a3a3a3"/><rect x="324.67" y="32.47" width="32.47" height="32.47" fill="#a360f6"/><path d="M 324.67 64.94 A 32.47 32.47 0 0 0 357.14 32.47 L 324.67 32.47" fill="#b37bf7"/><rect x="357.13" y="32.47" width="32.47" height="32.47" fill="#7c1df2"/><polygon points="389.6,32.47 389.6,64.94 357.13,64.94" fill="#f1e6fe"/><rect x="389.6" y="32.47" width="32.47" height="32.47" fill="#dabffb"/><rect x="389.6" y="32.47" width="32.47" height="32.47" fill="#ae73f7"/><rect x="422.07" y="32.47" width="32.47" height="32.47" fill="#414141"/><polygon points="454.53999999999996,32.47 454.53999999999996,64.94 422.07,64.94" fill="#dabefb"/><rect x="0" y="64.93" width="32.47" height="32.47" fill="#a0a0a0"/><path d="M 0 64.93 A 32.47 32.47 0 0 1 32.47 97.4 L 0 97.4" fill="#f4ebfe"/><rect x="32.47" y="64.93" width="32.47" height="32.47" fill="#dbdbdb"/><path d="M 32.47 64.93 A 32.47 32.47 0 0 1  64.94 97.4 L 32.47 64.93 A 32.47 32.47 0 0 0 64.94 97.4" fill="#e6d4fc"/><rect x="64.93" y="64.93" width="32.47" height="32.47" fill="#ab6ef6"/><path d="M 64.93 64.93 A 32.47 32.47 0 0 1  97.4 97.4 L 64.93 64.93 A 32.47 32.47 0 0 0 97.4 97.4" fill="#c8c8c8"/><rect x="97.4" y="64.93" width="32.47" height="32.47" fill="#eee2fd"/><rect x="97.4" y="64.93" width="32.47" height="32.47" fill="#7c1df2"/><rect x="129.87" y="64.93" width="32.47" height="32.47" fill="#9b53f5"/><polygon points="129.87,64.93 162.34,97.4 129.87,97.4" fill="#d0adfa"/><rect x="162.33" y="64.93" width="32.47" height="32.47" fill="#cfabfa"/><rect x="162.33" y="64.93" width="32.47" height="32.47" fill="#7b1bf1"/><rect x="194.8" y="64.93" width="32.47" height="32.47" fill="#8024f2"/><rect x="194.8" y="64.93" width="32.47" height="32.47" fill="#d6d6d6"/><rect x="227.27" y="64.93" width="32.47" height="32.47" fill="#fefeff"/><polygon points="259.74,64.93 259.74,97.4 227.27,97.4" fill="#9344f4"/><rect x="259.73" y="64.93" width="32.47" height="32.47" fill="#9a9a9a"/><polygon points="292.20000000000005,64.93 292.20000000000005,97.4 259.73,97.4" fill="#f3eafe"/><rect x="292.2" y="64.93" width="32.47" height="32.47" fill="#c89ff9"/><polygon points="292.2,64.93 324.66999999999996,64.93 324.66999999999996,97.4" fill="#8831f3"/><rect x="324.67" y="64.93" width="32.47" height="32.47" fill="#d5b6fb"/><path d="M 324.67 97.4 A 32.47 32.47 0 0 1  357.14 64.93 L 357.14 97.4" fill="#efe4fd"/><rect x="357.13" y="64.93" width="32.47" height="32.47" fill="#a665f6"/><path d="M 357.13 64.93 A 32.47 32.47 0 0 0 389.6 97.4 L 389.6 64.93" fill="#ba88f8"/><rect x="389.6" y="64.93" width="32.47" height="32.47" fill="#262626"/><path d="M 389.6 97.4 A 32.47 32.47 0 0 1  422.07000000000005 64.93 L 389.6 97.4 A 32.47 32.47 0 0 0 422.07000000000005 64.93" fill="#f5eefe"/><rect x="422.07" y="64.93" width="32.47" height="32.47" fill="#ecddfd"/><rect x="422.07" y="64.93" width="32.47" height="32.47" fill="#dec6fc"/><rect x="0" y="97.4" width="32.47" height="32.47" fill="#171717"/><path d="M 0 129.87 A 32.47 32.47 0 0 0 32.47 97.4 L 0 97.4" fill="#e2e2e2"/><rect x="32.47" y="97.4" width="32.47" height="32.47" fill="#dac0fb"/><path d="M 32.47 129.87 A 32.47 32.47 0 0 0 64.94 97.4 L 32.47 97.4" fill="#a25ff5"/><rect x="64.93" y="97.4" width="32.47" height="32.47" fill="#dfc8fc"/><path d="M 64.93 129.87 A 32.47 32.47 0 0 1  97.4 97.4 L 64.93 129.87 A 32.47 32.47 0 0 0 97.4 97.4" fill="#cccccc"/><rect x="97.4" y="97.4" width="32.47" height="32.47" fill="#6c6c6c"/><path d="M 97.4 129.87 A 32.47 32.47 0 0 1  129.87 97.4 L 129.87 129.87" fill="#f7f1fe"/><rect x="129.87" y="97.4" width="32.47" height="32.47" fill="#d0d0d0"/><polygon points="129.87,97.4 162.34,97.4 129.87,129.87" fill="#545454"/><rect x="162.33" y="97.4" width="32.47" height="32.47" fill="#efefef"/><polygon points="162.33,97.4 194.8,97.4 194.8,129.87" fill="#777777"/><rect x="194.8" y="97.4" width="32.47" height="32.47" fill="#a868f6"/><rect x="194.8" y="97.4" width="32.47" height="32.47" fill="#c69cf9"/><rect x="227.27" y="97.4" width="32.47" height="32.47" fill="#3a3a3a"/><path d="M 227.27 129.87 A 32.47 32.47 0 0 1  259.74 97.4 L 227.27 129.87 A 32.47 32.47 0 0 0 259.74 97.4" fill="#a563f6"/><rect x="259.73" y="97.4" width="32.47" height="32.47" fill="#8a35f3"/><polygon points="259.73,97.4 292.20000000000005,97.4 259.73,129.87" fill="#ab6df6"/><rect x="292.2" y="97.4" width="32.47" height="32.47" fill="#bababa"/><path d="M 292.2 129.87 A 32.47 32.47 0 0 1  324.66999999999996 97.4 L 292.2 129.87 A 32.47 32.47 0 0 0 324.66999999999996 97.4" fill="#b986f8"/><rect x="324.67" y="97.4" width="32.47" height="32.47" fill="#a3a3a3"/><polygon points="324.67,97.4 357.14,97.4 324.67,129.87" fill="#757575"/><rect x="357.13" y="97.4" width="32.47" height="32.47" fill="#cca7fa"/><rect x="357.13" y="97.4" width="32.47" height="32.47" fill="#a96af6"/><rect x="389.6" y="97.4" width="32.47" height="32.47" fill="#a563f6"/><polygon points="389.6,97.4 422.07000000000005,129.87 389.6,129.87" fill="#bdbdbd"/><rect x="422.07" y="97.4" width="32.47" height="32.47" fill="#d2b1fa"/><rect x="422.07" y="97.4" width="32.47" height="32.47" fill="#676767"/><rect x="0" y="129.87" width="32.47" height="32.47" fill="#989898"/><rect x="0" y="129.87" width="32.47" height="32.47" fill="#f4f4f4"/><rect x="32.47" y="129.87" width="32.47" height="32.47" fill="#cdcdcd"/><path d="M 32.47 129.87 A 32.47 32.47 0 0 1 64.94 162.34 L 32.47 162.34" fill="#a15df5"/><rect x="64.93" y="129.87" width="32.47" height="32.47" fill="#a767f6"/><polygon points="64.93,129.87 97.4,129.87 97.4,162.34" fill="#ffffff"/><rect x="97.4" y="129.87" width="32.47" height="32.47" fill="#ffffff"/><path d="M 97.4 129.87 A 32.47 32.47 0 0 1  129.87 162.34 L 97.4 129.87 A 32.47 32.47 0 0 0 129.87 162.34" fill="#f0f0f0"/><rect x="129.87" y="129.87" width="32.47" height="32.47" fill="#fefeff"/><polygon points="162.34,129.87 162.34,162.34 129.87,162.34" fill="#eaeaea"/><rect x="162.33" y="129.87" width="32.47" height="32.47" fill="#8c38f3"/><polygon points="194.8,129.87 194.8,162.34 162.33,162.34" fill="#a25ef5"/><rect x="194.8" y="129.87" width="32.47" height="32.47" fill="#5a5a5a"/><polygon points="227.27,129.87 227.27,162.34 194.8,162.34" fill="#a360f6"/><rect x="227.27" y="129.87" width="32.47" height="32.47" fill="#dcc3fb"/><rect x="227.27" y="129.87" width="32.47" height="32.47" fill="#e4e4e4"/><rect x="259.73" y="129.87" width="32.47" height="32.47" fill="#cacaca"/><rect x="259.73" y="129.87" width="32.47" height="32.47" fill="#ecdefd"/><rect x="292.2" y="129.87" width="32.47" height="32.47" fill="#3c3c3c"/><path d="M 292.2 162.34 A 32.47 32.47 0 0 0 324.66999999999996 129.87 L 292.2 129.87" fill="#2e2e2e"/><rect x="324.67" y="129.87" width="32.47" height="32.47" fill="#dbc0fb"/><path d="M 324.67 162.34 A 32.47 32.47 0 0 0 357.14 129.87 L 324.67 129.87" fill="#f2e9fe"/><rect x="357.13" y="129.87" width="32.47" height="32.47" fill="#646464"/><path d="M 357.13 162.34 A 32.47 32.47 0 0 1  389.6 129.87 L 357.13 162.34 A 32.47 32.47 0 0 0 389.6 129.87" fill="#9b51f5"/><rect x="389.6" y="129.87" width="32.47" height="32.47" fill="#b986f8"/><polygon points="389.6,129.87 422.07000000000005,129.87 389.6,162.34" fill="#515151"/><rect x="422.07" y="129.87" width="32.47" height="32.47" fill="#dec7fc"/><polygon points="454.53999999999996,129.87 454.53999999999996,162.34 422.07,162.34" fill="#515151"/><rect x="0" y="162.33" width="32.47" height="32.47" fill="#b279f7"/><rect x="0" y="162.33" width="32.47" height="32.47" fill="#aeaeae"/><rect x="32.47" y="162.33" width="32.47" height="32.47" fill="#444444"/><rect x="32.47" y="162.33" width="32.47" height="32.47" fill="#121212"/><rect x="64.93" y="162.33" width="32.47" height="32.47" fill="#5f5f5f"/><path d="M 64.93 162.33 A 32.47 32.47 0 0 0 97.4 194.8 L 97.4 162.33" fill="#383838"/><rect x="97.4" y="162.33" width="32.47" height="32.47" fill="#d4d4d4"/><path d="M 97.4 162.33 A 32.47 32.47 0 0 0 129.87 194.8 L 129.87 162.33" fill="#676767"/><rect x="129.87" y="162.33" width="32.47" height="32.47" fill="#e5d1fc"/><path d="M 129.87 194.8 A 32.47 32.47 0 0 1  162.34 162.33 L 129.87 194.8 A 32.47 32.47 0 0 0 162.34 162.33" fill="#717171"/><rect x="162.33" y="162.33" width="32.47" height="32.47" fill="#bd8df8"/><rect x="162.33" y="162.33" width="32.47" height="32.47" fill="#d0aefa"/><rect x="194.8" y="162.33" width="32.47" height="32.47" fill="#767676"/><rect x="194.8" y="162.33" width="32.47" height="32.47" fill="#a0a0a0"/><rect x="227.27" y="162.33" width="32.47" height="32.47" fill="#a361f6"/><path d="M 227.27 162.33 A 32.47 32.47 0 0 0 259.74 194.8 L 259.74 162.33" fill="#d4b5fb"/><rect x="259.73" y="162.33" width="32.47" height="32.47" fill="#c2c2c2"/><polygon points="259.73,162.33 292.20000000000005,162.33 292.20000000000005,194.8" fill="#505050"/><rect x="292.2" y="162.33" width="32.47" height="32.47" fill="#852cf2"/><rect x="292.2" y="162.33" width="32.47" height="32.47" fill="#acacac"/><rect x="324.67" y="162.33" width="32.47" height="32.47" fill="#ababab"/><rect x="324.67" y="162.33" width="32.47" height="32.47" fill="#333333"/><rect x="357.13" y="162.33" width="32.47" height="32.47" fill="#5e5e5e"/><polygon points="357.13,162.33 389.6,162.33 357.13,194.8" fill="#a563f6"/><rect x="389.6" y="162.33" width="32.47" height="32.47" fill="#545454"/><path d="M 389.6 194.8 A 32.47 32.47 0 0 0 422.07000000000005 162.33 L 389.6 162.33" fill="#c8c8c8"/><rect x="422.07" y="162.33" width="32.47" height="32.47" fill="#f5f5f5"/><path d="M 422.07 162.33 A 32.47 32.47 0 0 1  454.53999999999996 194.8 L 422.07 162.33 A 32.47 32.47 0 0 0 454.53999999999996 194.8" fill="#3a3a3a"/><rect x="0" y="194.8" width="32.47" height="32.47" fill="#b580f7"/><path d="M 0 227.27 A 32.47 32.47 0 0 1  32.47 194.8 L 32.47 227.27" fill="#a2a2a2"/><rect x="32.47" y="194.8" width="32.47" height="32.47" fill="#ceaafa"/><rect x="32.47" y="194.8" width="32.47" height="32.47" fill="#fcfbff"/><rect x="64.93" y="194.8" width="32.47" height="32.47" fill="#8934f3"/><polygon points="64.93,194.8 97.4,194.8 64.93,227.27" fill="#747474"/><rect x="97.4" y="194.8" width="32.47" height="32.47" fill="#424242"/><path d="M 97.4 227.27 A 32.47 32.47 0 0 1  129.87 194.8 L 129.87 227.27" fill="#b987f8"/><rect x="129.87" y="194.8" width="32.47" height="32.47" fill="#fafafa"/><rect x="129.87" y="194.8" width="32.47" height="32.47" fill="#852cf2"/><rect x="162.33" y="194.8" width="32.47" height="32.47" fill="#3b3b3b"/><polygon points="162.33,194.8 194.8,194.8 162.33,227.27" fill="#b782f8"/><rect x="194.8" y="194.8" width="32.47" height="32.47" fill="#c79ef9"/><polygon points="194.8,194.8 227.27,227.27 194.8,227.27" fill="#8023f2"/><rect x="227.27" y="194.8" width="32.47" height="32.47" fill="#ededed"/><polygon points="227.27,194.8 259.74,227.27 227.27,227.27" fill="#9f59f5"/><rect x="259.73" y="194.8" width="32.47" height="32.47" fill="#e7d6fd"/><polygon points="292.20000000000005,194.8 292.20000000000005,227.27 259.73,227.27" fill="#e2ccfc"/><rect x="292.2" y="194.8" width="32.47" height="32.47" fill="#7f21f2"/><polygon points="324.66999999999996,194.8 324.66999999999996,227.27 292.2,227.27" fill="#adadad"/><rect x="324.67" y="194.8" width="32.47" height="32.47" fill="#ad71f7"/><path d="M 324.67 227.27 A 32.47 32.47 0 0 0 357.14 194.8 L 324.67 194.8" fill="#afafaf"/><rect x="357.13" y="194.8" width="32.47" height="32.47" fill="#862ef3"/><rect x="357.13" y="194.8" width="32.47" height="32.47" fill="#797979"/><rect x="389.6" y="194.8" width="32.47" height="32.47" fill="#974cf4"/><polygon points="389.6,194.8 422.07000000000005,194.8 422.07000000000005,227.27" fill="#b1b1b1"/><rect x="422.07" y="194.8" width="32.47" height="32.47" fill="#b47df7"/><path d="M 422.07 194.8 A 32.47 32.47 0 0 1  454.53999999999996 227.27 L 422.07 194.8 A 32.47 32.47 0 0 0 454.53999999999996 227.27" fill="#7d1ff2"/><rect x="0" y="227.27" width="32.47" height="32.47" fill="#b987f8"/><polygon points="0,227.27 32.47,259.74 0,259.74" fill="#9243f4"/><rect x="32.47" y="227.27" width="32.47" height="32.47" fill="#545454"/><rect x="32.47" y="227.27" width="32.47" height="32.47" fill="#8e8e8e"/><rect x="64.93" y="227.27" width="32.47" height="32.47" fill="#b37bf7"/><rect x="64.93" y="227.27" width="32.47" height="32.47" fill="#c59af9"/><rect x="97.4" y="227.27" width="32.47" height="32.47" fill="#535353"/><path d="M 97.4 259.74 A 32.47 32.47 0 0 0 129.87 227.27 L 97.4 227.27" fill="#9d9d9d"/><rect x="129.87" y="227.27" width="32.47" height="32.47" fill="#6c6c6c"/><rect x="129.87" y="227.27" width="32.47" height="32.47" fill="#232323"/><rect x="162.33" y="227.27" width="32.47" height="32.47" fill="#b4b4b4"/><polygon points="162.33,227.27 194.8,259.74 162.33,259.74" fill="#979797"/><rect x="194.8" y="227.27" width="32.47" height="32.47" fill="#b57ff7"/><path d="M 194.8 259.74 A 32.47 32.47 0 0 1  227.27 227.27 L 194.8 259.74 A 32.47 32.47 0 0 0 227.27 227.27" fill="#212121"/><rect x="227.27" y="227.27" width="32.47" height="32.47" fill="#2f2f2f"/><rect x="227.27" y="227.27" width="32.47" height="32.47" fill="#f6f6f6"/><rect x="259.73" y="227.27" width="32.47" height="32.47" fill="#852df2"/><rect x="259.73" y="227.27" width="32.47" height="32.47" fill="#f1e6fe"/><rect x="292.2" y="227.27" width="32.47" height="32.47" fill="#9a50f5"/><rect x="292.2" y="227.27" width="32.47" height="32.47" fill="#272727"/><rect x="324.67" y="227.27" width="32.47" height="32.47" fill="#8e3cf3"/><rect x="324.67" y="227.27" width="32.47" height="32.47" fill="#bdbdbd"/><rect x="357.13" y="227.27" width="32.47" height="32.47" fill="#222222"/><rect x="357.13" y="227.27" width="32.47" height="32.47" fill="#ba87f8"/><rect x="389.6" y="227.27" width="32.47" height="32.47" fill="#fcfcfc"/><path d="M 389.6 227.27 A 32.47 32.47 0 0 1  422.07000000000005 259.74 L 389.6 227.27 A 32.47 32.47 0 0 0 422.07000000000005 259.74" fill="#c498f9"/><rect x="422.07" y="227.27" width="32.47" height="32.47" fill="#e2ccfc"/><polygon points="454.53999999999996,227.27 454.53999999999996,259.74 422.07,259.74" fill="#292929"/><rect x="0" y="259.73" width="32.47" height="32.47" fill="#cca7fa"/><polygon points="0,259.73 32.47,259.73 32.47,292.20000000000005" fill="#8a35f3"/><rect x="32.47" y="259.73" width="32.47" height="32.47" fill="#696969"/><rect x="32.47" y="259.73" width="32.47" height="32.47" fill="#bf91f8"/><rect x="64.93" y="259.73" width="32.47" height="32.47" fill="#c9a1f9"/><rect x="64.93" y="259.73" width="32.47" height="32.47" fill="#c193f9"/><rect x="97.4" y="259.73" width="32.47" height="32.47" fill="#ede0fd"/><rect x="97.4" y="259.73" width="32.47" height="32.47" fill="#f0e5fd"/><rect x="129.87" y="259.73" width="32.47" height="32.47" fill="#8227f2"/><rect x="129.87" y="259.73" width="32.47" height="32.47" fill="#949494"/><rect x="162.33" y="259.73" width="32.47" height="32.47" fill="#7917f1"/><path d="M 162.33 292.20000000000005 A 32.47 32.47 0 0 1  194.8 259.73 L 162.33 292.20000000000005 A 32.47 32.47 0 0 0 194.8 259.73" fill="#6e6e6e"/><rect x="194.8" y="259.73" width="32.47" height="32.47" fill="#646464"/><polygon points="194.8,259.73 227.27,259.73 194.8,292.20000000000005" fill="#8832f3"/><rect x="227.27" y="259.73" width="32.47" height="32.47" fill="#c498f9"/><rect x="227.27" y="259.73" width="32.47" height="32.47" fill="#9b52f5"/><rect x="259.73" y="259.73" width="32.47" height="32.47" fill="#f0e6fe"/><polygon points="259.73,259.73 292.20000000000005,292.20000000000005 259.73,292.20000000000005" fill="#464646"/><rect x="292.2" y="259.73" width="32.47" height="32.47" fill="#696969"/><rect x="292.2" y="259.73" width="32.47" height="32.47" fill="#7b1bf1"/><rect x="324.67" y="259.73" width="32.47" height="32.47" fill="#974cf4"/><rect x="324.67" y="259.73" width="32.47" height="32.47" fill="#d9bdfb"/><rect x="357.13" y="259.73" width="32.47" height="32.47" fill="#7917f1"/><rect x="357.13" y="259.73" width="32.47" height="32.47" fill="#b37bf7"/><rect x="389.6" y="259.73" width="32.47" height="32.47" fill="#565656"/><polygon points="389.6,259.73 422.07000000000005,292.20000000000005 389.6,292.20000000000005" fill="#fefdff"/><rect x="422.07" y="259.73" width="32.47" height="32.47" fill="#f8f3fe"/><rect x="422.07" y="259.73" width="32.47" height="32.47" fill="#b681f7"/><rect x="0" y="292.2" width="32.47" height="32.47" fill="#c89ff9"/><rect x="0" y="292.2" width="32.47" height="32.47" fill="#a3a3a3"/><rect x="32.47" y="292.2" width="32.47" height="32.47" fill="#626262"/><polygon points="64.94,292.2 64.94,324.66999999999996 32.47,324.66999999999996" fill="#242424"/><rect x="64.93" y="292.2" width="32.47" height="32.47" fill="#e4d1fc"/><path d="M 64.93 292.2 A 32.47 32.47 0 0 1 97.4 324.66999999999996 L 64.93 324.66999999999996" fill="#8a35f3"/><rect x="97.4" y="292.2" width="32.47" height="32.47" fill="#eee1fd"/><rect x="97.4" y="292.2" width="32.47" height="32.47" fill="#b3b3b3"/><rect x="129.87" y="292.2" width="32.47" height="32.47" fill="#969696"/><path d="M 129.87 292.2 A 32.47 32.47 0 0 0 162.34 324.66999999999996 L 162.34 292.2" fill="#101010"/><rect x="162.33" y="292.2" width="32.47" height="32.47" fill="#f6effe"/><polygon points="194.8,292.2 194.8,324.66999999999996 162.33,324.66999999999996" fill="#5a5a5a"/><rect x="194.8" y="292.2" width="32.47" height="32.47" fill="#232323"/><rect x="194.8" y="292.2" width="32.47" height="32.47" fill="#c0c0c0"/><rect x="227.27" y="292.2" width="32.47" height="32.47" fill="#515151"/><polygon points="227.27,292.2 259.74,292.2 259.74,324.66999999999996" fill="#dbdbdb"/><rect x="259.73" y="292.2" width="32.47" height="32.47" fill="#e9dafd"/><rect x="259.73" y="292.2" width="32.47" height="32.47" fill="#383838"/><rect x="292.2" y="292.2" width="32.47" height="32.47" fill="#161616"/><path d="M 292.2 292.2 A 32.47 32.47 0 0 1 324.66999999999996 324.66999999999996 L 292.2 324.66999999999996" fill="#cacaca"/><rect x="324.67" y="292.2" width="32.47" height="32.47" fill="#b5b5b5"/><path d="M 324.67 292.2 A 32.47 32.47 0 0 1  357.14 324.66999999999996 L 324.67 292.2 A 32.47 32.47 0 0 0 357.14 324.66999999999996" fill="#b9b9b9"/><rect x="357.13" y="292.2" width="32.47" height="32.47" fill="#ececec"/><path d="M 357.13 324.66999999999996 A 32.47 32.47 0 0 1  389.6 292.2 L 357.13 324.66999999999996 A 32.47 32.47 0 0 0 389.6 292.2" fill="#545454"/><rect x="389.6" y="292.2" width="32.47" height="32.47" fill="#8d8d8d"/><path d="M 389.6 292.2 A 32.47 32.47 0 0 1 422.07000000000005 324.66999999999996 L 389.6 324.66999999999996" fill="#f6f6f6"/><rect x="422.07" y="292.2" width="32.47" height="32.47" fill="#232323"/><polygon points="422.07,292.2 454.53999999999996,324.66999999999996 422.07,324.66999999999996" fill="#b580f7"/><rect x="0" y="324.67" width="32.47" height="32.47" fill="#151515"/><rect x="0" y="324.67" width="32.47" height="32.47" fill="#be8ff8"/><rect x="32.47" y="324.67" width="32.47" height="32.47" fill="#aa6cf6"/><path d="M 32.47 324.67 A 32.47 32.47 0 0 1 64.94 357.14 L 32.47 357.14" fill="#b37bf7"/><rect x="64.93" y="324.67" width="32.47" height="32.47" fill="#8a34f3"/><path d="M 64.93 324.67 A 32.47 32.47 0 0 0 97.4 357.14 L 97.4 324.67" fill="#9446f4"/><rect x="97.4" y="324.67" width="32.47" height="32.47" fill="#d8bcfb"/><path d="M 97.4 324.67 A 32.47 32.47 0 0 1 129.87 357.14 L 97.4 357.14" fill="#dadada"/><rect x="129.87" y="324.67" width="32.47" height="32.47" fill="#e3e3e3"/><polygon points="129.87,324.67 162.34,357.14 129.87,357.14" fill="#8d3af3"/><rect x="162.33" y="324.67" width="32.47" height="32.47" fill="#636363"/><path d="M 162.33 324.67 A 32.47 32.47 0 0 1  194.8 357.14 L 162.33 324.67 A 32.47 32.47 0 0 0 194.8 357.14" fill="#903ff4"/><rect x="194.8" y="324.67" width="32.47" height="32.47" fill="#ddc4fb"/><path d="M 194.8 324.67 A 32.47 32.47 0 0 0 227.27 357.14 L 227.27 324.67" fill="#8328f2"/><rect x="227.27" y="324.67" width="32.47" height="32.47" fill="#7918f1"/><path d="M 227.27 357.14 A 32.47 32.47 0 0 1  259.74 324.67 L 259.74 357.14" fill="#343434"/><rect x="259.73" y="324.67" width="32.47" height="32.47" fill="#a9a9a9"/><polygon points="259.73,324.67 292.20000000000005,324.67 292.20000000000005,357.14" fill="#262626"/><rect x="292.2" y="324.67" width="32.47" height="32.47" fill="#903ff4"/><rect x="292.2" y="324.67" width="32.47" height="32.47" fill="#8329f2"/><rect x="324.67" y="324.67" width="32.47" height="32.47" fill="#9446f4"/><rect x="324.67" y="324.67" width="32.47" height="32.47" fill="#7d1ff2"/><rect x="357.13" y="324.67" width="32.47" height="32.47" fill="#242424"/><polygon points="357.13,324.67 389.6,324.67 389.6,357.14" fill="#a5a5a5"/><rect x="389.6" y="324.67" width="32.47" height="32.47" fill="#171717"/><polygon points="389.6,324.67 422.07000000000005,357.14 389.6,357.14" fill="#c8a0f9"/><rect x="422.07" y="324.67" width="32.47" height="32.47" fill="#dadada"/><path d="M 422.07 357.14 A 32.47 32.47 0 0 1  454.53999999999996 324.67 L 422.07 357.14 A 32.47 32.47 0 0 0 454.53999999999996 324.67" fill="#9f59f5"/><rect x="0" y="357.13" width="32.47" height="32.47" fill="#8d39f3"/><rect x="0" y="357.13" width="32.47" height="32.47" fill="#bc8bf8"/><rect x="32.47" y="357.13" width="32.47" height="32.47" fill="#4a4a4a"/><path d="M 32.47 389.6 A 32.47 32.47 0 0 1  64.94 357.13 L 64.94 389.6" fill="#a96af6"/><rect x="64.93" y="357.13" width="32.47" height="32.47" fill="#707070"/><path d="M 64.93 357.13 A 32.47 32.47 0 0 1 97.4 389.6 L 64.93 389.6" fill="#6f6f6f"/><rect x="97.4" y="357.13" width="32.47" height="32.47" fill="#d9d9d9"/><path d="M 97.4 389.6 A 32.47 32.47 0 0 1  129.87 357.13 L 129.87 389.6" fill="#5d5d5d"/><rect x="129.87" y="357.13" width="32.47" height="32.47" fill="#626262"/><path d="M 129.87 389.6 A 32.47 32.47 0 0 0 162.34 357.13 L 129.87 357.13" fill="#606060"/><rect x="162.33" y="357.13" width="32.47" height="32.47" fill="#a1a1a1"/><polygon points="194.8,357.13 194.8,389.6 162.33,389.6" fill="#a462f6"/><rect x="194.8" y="357.13" width="32.47" height="32.47" fill="#3d3d3d"/><polygon points="227.27,357.13 227.27,389.6 194.8,389.6" fill="#aa6cf6"/><rect x="227.27" y="357.13" width="32.47" height="32.47" fill="#999999"/><path d="M 227.27 389.6 A 32.47 32.47 0 0 1  259.74 357.13 L 227.27 389.6 A 32.47 32.47 0 0 0 259.74 357.13" fill="#4e4e4e"/><rect x="259.73" y="357.13" width="32.47" height="32.47" fill="#be8ef8"/><rect x="259.73" y="357.13" width="32.47" height="32.47" fill="#af75f7"/><rect x="292.2" y="357.13" width="32.47" height="32.47" fill="#b5b5b5"/><path d="M 292.2 389.6 A 32.47 32.47 0 0 1  324.66999999999996 357.13 L 324.66999999999996 389.6" fill="#b9b9b9"/><rect x="324.67" y="357.13" width="32.47" height="32.47" fill="#4e4e4e"/><path d="M 324.67 389.6 A 32.47 32.47 0 0 1  357.14 357.13 L 357.14 389.6" fill="#d5b6fb"/><rect x="357.13" y="357.13" width="32.47" height="32.47" fill="#b884f8"/><rect x="357.13" y="357.13" width="32.47" height="32.47" fill="#8b36f3"/><rect x="389.6" y="357.13" width="32.47" height="32.47" fill="#b885f8"/><polygon points="389.6,357.13 422.07000000000005,357.13 389.6,389.6" fill="#d9d9d9"/><rect x="422.07" y="357.13" width="32.47" height="32.47" fill="#8933f3"/><path d="M 422.07 357.13 A 32.47 32.47 0 0 1 454.53999999999996 389.6 L 422.07 389.6" fill="#9a51f5"/><rect x="0" y="389.6" width="32.47" height="32.47" fill="#c498f9"/><path d="M 0 389.6 A 32.47 32.47 0 0 0 32.47 422.07000000000005 L 32.47 389.6" fill="#2e2e2e"/><rect x="32.47" y="389.6" width="32.47" height="32.47" fill="#fcfaff"/><rect x="32.47" y="389.6" width="32.47" height="32.47" fill="#7f21f2"/><rect x="64.93" y="389.6" width="32.47" height="32.47" fill="#be8ef8"/><path d="M 64.93 422.07000000000005 A 32.47 32.47 0 0 1  97.4 389.6 L 97.4 422.07000000000005" fill="#8b36f3"/><rect x="97.4" y="389.6" width="32.47" height="32.47" fill="#c296f9"/><rect x="97.4" y="389.6" width="32.47" height="32.47" fill="#dcc3fb"/><rect x="129.87" y="389.6" width="32.47" height="32.47" fill="#616161"/><polygon points="129.87,389.6 162.34,389.6 162.34,422.07000000000005" fill="#dbc1fb"/><rect x="162.33" y="389.6" width="32.47" height="32.47" fill="#2b2b2b"/><polygon points="194.8,389.6 194.8,422.07000000000005 162.33,422.07000000000005" fill="#121212"/><rect x="194.8" y="389.6" width="32.47" height="32.47" fill="#bfbfbf"/><polygon points="194.8,389.6 227.27,389.6 227.27,422.07000000000005" fill="#efe4fd"/><rect x="227.27" y="389.6" width="32.47" height="32.47" fill="#dddddd"/><polygon points="259.74,389.6 259.74,422.07000000000005 227.27,422.07000000000005" fill="#777777"/><rect x="259.73" y="389.6" width="32.47" height="32.47" fill="#5a5a5a"/><path d="M 259.73 389.6 A 32.47 32.47 0 0 0 292.20000000000005 422.07000000000005 L 292.20000000000005 389.6" fill="#868686"/><rect x="292.2" y="389.6" width="32.47" height="32.47" fill="#c7c7c7"/><rect x="292.2" y="389.6" width="32.47" height="32.47" fill="#dedede"/><rect x="324.67" y="389.6" width="32.47" height="32.47" fill="#929292"/><polygon points="324.67,389.6 357.14,422.07000000000005 324.67,422.07000000000005" fill="#d2d2d2"/><rect x="357.13" y="389.6" width="32.47" height="32.47" fill="#cccccc"/><polygon points="389.6,389.6 389.6,422.07000000000005 357.13,422.07000000000005" fill="#f7f7f7"/><rect x="389.6" y="389.6" width="32.47" height="32.47" fill="#f0e6fd"/><polygon points="389.6,389.6 422.07000000000005,389.6 389.6,422.07000000000005" fill="#4b4b4b"/><rect x="422.07" y="389.6" width="32.47" height="32.47" fill="#3e3e3e"/><rect x="422.07" y="389.6" width="32.47" height="32.47" fill="#929292"/><rect x="0" y="422.07" width="32.47" height="32.47" fill="#b783f8"/><path d="M 0 422.07 A 32.47 32.47 0 0 0 32.47 454.53999999999996 L 32.47 422.07" fill="#858585"/><rect x="32.47" y="422.07" width="32.47" height="32.47" fill="#862ef3"/><path d="M 32.47 454.53999999999996 A 32.47 32.47 0 0 1  64.94 422.07 L 32.47 454.53999999999996 A 32.47 32.47 0 0 0 64.94 422.07" fill="#a767f6"/><rect x="64.93" y="422.07" width="32.47" height="32.47" fill="#d7b9fb"/><polygon points="64.93,422.07 97.4,422.07 64.93,454.53999999999996" fill="#9f59f5"/><rect x="97.4" y="422.07" width="32.47" height="32.47" fill="#994ef4"/><rect x="97.4" y="422.07" width="32.47" height="32.47" fill="#bcbcbc"/><rect x="129.87" y="422.07" width="32.47" height="32.47" fill="#862ef3"/><polygon points="162.34,422.07 162.34,454.53999999999996 129.87,454.53999999999996" fill="#b27af7"/><rect x="162.33" y="422.07" width="32.47" height="32.47" fill="#e1e1e1"/><polygon points="162.33,422.07 194.8,422.07 194.8,454.53999999999996" fill="#454545"/><rect x="194.8" y="422.07" width="32.47" height="32.47" fill="#e1e1e1"/><path d="M 194.8 454.53999999999996 A 32.47 32.47 0 0 1  227.27 422.07 L 194.8 454.53999999999996 A 32.47 32.47 0 0 0 227.27 422.07" fill="#c1c1c1"/><rect x="227.27" y="422.07" width="32.47" height="32.47" fill="#a3a3a3"/><polygon points="227.27,422.07 259.74,454.53999999999996 227.27,454.53999999999996" fill="#9f9f9f"/><rect x="259.73" y="422.07" width="32.47" height="32.47" fill="#e1e1e1"/><path d="M 259.73 454.53999999999996 A 32.47 32.47 0 0 0 292.20000000000005 422.07 L 259.73 422.07" fill="#d8bbfb"/><rect x="292.2" y="422.07" width="32.47" height="32.47" fill="#b37bf7"/><path d="M 292.2 422.07 A 32.47 32.47 0 0 1 324.66999999999996 454.53999999999996 L 292.2 454.53999999999996" fill="#8d39f3"/><rect x="324.67" y="422.07" width="32.47" height="32.47" fill="#7f7f7f"/><polygon points="324.67,422.07 357.14,422.07 357.14,454.53999999999996" fill="#903ff4"/><rect x="357.13" y="422.07" width="32.47" height="32.47" fill="#6b6b6b"/><rect x="357.13" y="422.07" width="32.47" height="32.47" fill="#bfbfbf"/><rect x="389.6" y="422.07" width="32.47" height="32.47" fill="#a461f6"/><path d="M 389.6 454.53999999999996 A 32.47 32.47 0 0 1  422.07000000000005 422.07 L 389.6 454.53999999999996 A 32.47 32.47 0 0 0 422.07000000000005 422.07" fill="#151515"/><rect x="422.07" y="422.07" width="32.47" height="32.47" fill="#9142f4"/><polygon points="422.07,422.07 454.53999999999996,422.07 454.53999999999996,454.53999999999996" fill="#757575"/><rect x="0" y="454.53" width="32.47" height="32.47" fill="#b7b7b7"/><rect x="0" y="454.53" width="32.47" height="32.47" fill="#8832f3"/><rect x="32.47" y="454.53" width="32.47" height="32.47" fill="#a6a6a6"/><path d="M 32.47 487 A 32.47 32.47 0 0 1  64.94 454.53 L 32.47 487 A 32.47 32.47 0 0 0 64.94 454.53" fill="#464646"/><rect x="64.93" y="454.53" width="32.47" height="32.47" fill="#cda9fa"/><rect x="64.93" y="454.53" width="32.47" height="32.47" fill="#141414"/><rect x="97.4" y="454.53" width="32.47" height="32.47" fill="#484848"/><rect x="97.4" y="454.53" width="32.47" height="32.47" fill="#e1e1e1"/><rect x="129.87" y="454.53" width="32.47" height="32.47" fill="#9b53f5"/><rect x="129.87" y="454.53" width="32.47" height="32.47" fill="#ebdcfd"/><rect x="162.33" y="454.53" width="32.47" height="32.47" fill="#fcfaff"/><polygon points="162.33,454.53 194.8,487 162.33,487" fill="#cbcbcb"/><rect x="194.8" y="454.53" width="32.47" height="32.47" fill="#cfcfcf"/><path d="M 194.8 487 A 32.47 32.47 0 0 1  227.27 454.53 L 194.8 487 A 32.47 32.47 0 0 0 227.27 454.53" fill="#909090"/><rect x="227.27" y="454.53" width="32.47" height="32.47" fill="#dfc8fc"/><polygon points="259.74,454.53 259.74,487 227.27,487" fill="#262626"/><rect x="259.73" y="454.53" width="32.47" height="32.47" fill="#faf6fe"/><path d="M 259.73 487 A 32.47 32.47 0 0 1  292.20000000000005 454.53 L 292.20000000000005 487" fill="#8f3ef4"/><rect x="292.2" y="454.53" width="32.47" height="32.47" fill="#dbc0fb"/><polygon points="292.2,454.53 324.66999999999996,487 292.2,487" fill="#a664f6"/><rect x="324.67" y="454.53" width="32.47" height="32.47" fill="#d2b1fa"/><rect x="324.67" y="454.53" width="32.47" height="32.47" fill="#8b36f3"/><rect x="357.13" y="454.53" width="32.47" height="32.47" fill="#9344f4"/><polygon points="357.13,454.53 389.6,454.53 357.13,487" fill="#dddddd"/><rect x="389.6" y="454.53" width="32.47" height="32.47" fill="#d3d3d3"/><rect x="389.6" y="454.53" width="32.47" height="32.47" fill="#ceabfa"/><rect x="422.07" y="454.53" width="32.47" height="32.47" fill="#a5a5a5"/><polygon points="454.53999999999996,454.53 454.53999999999996,487 422.07,487" fill="#9c9c9c"/></g></svg>