<svg xmlns="http://www.w3.org/2000/svg" version="1.1" xmlns:xlink="http://www.w3.org/1999/xlink" xmlns:svgjs="http://svgjs.com/svgjs" width="1440" height="1000" preserveAspectRatio="none" viewBox="0 0 1440 1000">
  <g mask="url(&quot;#SvgjsMask1019&quot;)" fill="none">
    <rect width="1440" height="1000" x="0" y="0" fill="rgba(255, 255, 255, 1)"></rect>
    <path d="M28.32 -72.3L93.27 -34.8L93.27 40.2L28.32 77.7L-36.63 40.2L-36.63 -34.8zM93.27 265.2L158.23 302.7L158.23 377.7L93.27 415.2L28.32 377.7L28.32 302.7zM93.27 490.2L158.23 527.7L158.23 602.7L93.27 640.2L28.32 602.7L28.32 527.7zM28.32 602.7L93.27 640.2L93.27 715.2L28.32 752.7L-36.63 715.2L-36.63 640.2zM93.27 715.2L158.23 752.7L158.23 827.7L93.27 865.2L28.32 827.7L28.32 752.7zM28.32 827.7L93.27 865.2L93.27 940.2L28.32 977.7L-36.63 940.2L-36.63 865.2zM158.23 377.7L223.18 415.2L223.18 490.2L158.23 527.7L93.27 490.2L93.27 415.2zM223.18 490.2L288.13 527.7L288.13 602.7L223.18 640.2L158.23 602.7L158.23 527.7zM158.23 602.7L223.18 640.2L223.18 715.2L158.23 752.7L93.27 715.2L93.27 640.2zM158.23 827.7L223.18 865.2L223.18 940.2L158.23 977.7L93.27 940.2L93.27 865.2zM353.09 490.2L418.04 527.7L418.04 602.7L353.09 640.2L288.13 602.7L288.13 527.7zM288.13 602.7L353.09 640.2L353.09 715.2L288.13 752.7L223.18 715.2L223.18 640.2zM353.09 715.2L418.04 752.7L418.04 827.7L353.09 865.2L288.13 827.7L288.13 752.7zM288.13 827.7L353.09 865.2L353.09 940.2L288.13 977.7L223.18 940.2L223.18 865.2zM418.04 -72.3L483 -34.8L483 40.2L418.04 77.7L353.09 40.2L353.09 -34.8zM418.04 377.7L483 415.2L483 490.2L418.04 527.7L353.09 490.2L353.09 415.2zM483 490.2L547.95 527.7L547.95 602.7L483 640.2L418.04 602.7L418.04 527.7zM547.95 152.7L612.9 190.2L612.9 265.2L547.95 302.7L483 265.2L483 190.2zM742.81 265.2L807.77 302.7L807.77 377.7L742.81 415.2L677.86 377.7L677.86 302.7zM677.86 377.7L742.81 415.2L742.81 490.2L677.86 527.7L612.9 490.2L612.9 415.2zM742.81 490.2L807.77 527.7L807.77 602.7L742.81 640.2L677.86 602.7L677.86 527.7zM742.81 940.2L807.77 977.7L807.77 1052.7L742.81 1090.2L677.86 1052.7L677.86 977.7zM807.76 -72.3L872.72 -34.8L872.72 40.2L807.76 77.7L742.81 40.2L742.81 -34.8zM872.72 490.2L937.67 527.7L937.67 602.7L872.72 640.2L807.76 602.7L807.76 527.7zM872.72 715.2L937.67 752.7L937.67 827.7L872.72 865.2L807.76 827.7L807.76 752.7zM807.76 827.7L872.72 865.2L872.72 940.2L807.76 977.7L742.81 940.2L742.81 865.2zM1002.63 40.2L1067.58 77.7L1067.58 152.7L1002.63 190.2L937.67 152.7L937.67 77.7zM937.67 377.7L1002.63 415.2L1002.63 490.2L937.67 527.7L872.72 490.2L872.72 415.2zM937.67 602.7L1002.63 640.2L1002.63 715.2L937.67 752.7L872.72 715.2L872.72 640.2zM937.67 827.7L1002.63 865.2L1002.63 940.2L937.67 977.7L872.72 940.2L872.72 865.2zM1002.63 940.2L1067.58 977.7L1067.58 1052.7L1002.63 1090.2L937.67 1052.7L937.67 977.7zM1132.53 265.2L1197.49 302.7L1197.49 377.7L1132.53 415.2L1067.58 377.7L1067.58 302.7zM1132.53 715.2L1197.49 752.7L1197.49 827.7L1132.53 865.2L1067.58 827.7L1067.58 752.7zM1132.53 940.2L1197.49 977.7L1197.49 1052.7L1132.53 1090.2L1067.58 1052.7L1067.58 977.7zM1262.44 265.2L1327.39 302.7L1327.39 377.7L1262.44 415.2L1197.49 377.7L1197.49 302.7zM1262.44 490.2L1327.39 527.7L1327.39 602.7L1262.44 640.2L1197.49 602.7L1197.49 527.7zM1197.49 602.7L1262.44 640.2L1262.44 715.2L1197.49 752.7L1132.53 715.2L1132.53 640.2zM1327.39 152.7L1392.35 190.2L1392.35 265.2L1327.39 302.7L1262.44 265.2L1262.44 190.2zM1327.39 827.7L1392.35 865.2L1392.35 940.2L1327.39 977.7L1262.44 940.2L1262.44 865.2zM1392.35 940.2L1457.3 977.7L1457.3 1052.7L1392.35 1090.2L1327.39 1052.7L1327.39 977.7zM1522.26 40.2L1587.21 77.7L1587.21 152.7L1522.26 190.2L1457.3 152.7L1457.3 77.7zM1522.26 490.2L1587.21 527.7L1587.21 602.7L1522.26 640.2L1457.3 602.7L1457.3 527.7zM1457.3 602.7L1522.26 640.2L1522.26 715.2L1457.3 752.7L1392.35 715.2L1392.35 640.2zM1522.26 715.2L1587.21 752.7L1587.21 827.7L1522.26 865.2L1457.3 827.7L1457.3 752.7z" stroke="rgba(119, 20, 241, 0.35)" stroke-width="2"></path>
    <path d="M20.82 -72.3 a7.5 7.5 0 1 0 15 0 a7.5 7.5 0 1 0 -15 0zM85.77 -34.8 a7.5 7.5 0 1 0 15 0 a7.5 7.5 0 1 0 -15 0zM85.77 40.2 a7.5 7.5 0 1 0 15 0 a7.5 7.5 0 1 0 -15 0zM20.82 77.7 a7.5 7.5 0 1 0 15 0 a7.5 7.5 0 1 0 -15 0zM-44.13 40.2 a7.5 7.5 0 1 0 15 0 a7.5 7.5 0 1 0 -15 0zM-44.13 -34.8 a7.5 7.5 0 1 0 15 0 a7.5 7.5 0 1 0 -15 0zM85.77 265.2 a7.5 7.5 0 1 0 15 0 a7.5 7.5 0 1 0 -15 0zM150.73 302.7 a7.5 7.5 0 1 0 15 0 a7.5 7.5 0 1 0 -15 0zM150.73 377.7 a7.5 7.5 0 1 0 15 0 a7.5 7.5 0 1 0 -15 0zM85.77 415.2 a7.5 7.5 0 1 0 15 0 a7.5 7.5 0 1 0 -15 0zM20.82 377.7 a7.5 7.5 0 1 0 15 0 a7.5 7.5 0 1 0 -15 0zM20.82 302.7 a7.5 7.5 0 1 0 15 0 a7.5 7.5 0 1 0 -15 0zM85.77 490.2 a7.5 7.5 0 1 0 15 0 a7.5 7.5 0 1 0 -15 0zM150.73 527.7 a7.5 7.5 0 1 0 15 0 a7.5 7.5 0 1 0 -15 0zM150.73 602.7 a7.5 7.5 0 1 0 15 0 a7.5 7.5 0 1 0 -15 0zM85.77 640.2 a7.5 7.5 0 1 0 15 0 a7.5 7.5 0 1 0 -15 0zM20.82 602.7 a7.5 7.5 0 1 0 15 0 a7.5 7.5 0 1 0 -15 0zM20.82 527.7 a7.5 7.5 0 1 0 15 0 a7.5 7.5 0 1 0 -15 0zM85.77 715.2 a7.5 7.5 0 1 0 15 0 a7.5 7.5 0 1 0 -15 0zM20.82 752.7 a7.5 7.5 0 1 0 15 0 a7.5 7.5 0 1 0 -15 0zM-44.13 715.2 a7.5 7.5 0 1 0 15 0 a7.5 7.5 0 1 0 -15 0zM-44.13 640.2 a7.5 7.5 0 1 0 15 0 a7.5 7.5 0 1 0 -15 0zM150.73 752.7 a7.5 7.5 0 1 0 15 0 a7.5 7.5 0 1 0 -15 0zM150.73 827.7 a7.5 7.5 0 1 0 15 0 a7.5 7.5 0 1 0 -15 0zM85.77 865.2 a7.5 7.5 0 1 0 15 0 a7.5 7.5 0 1 0 -15 0zM20.82 827.7 a7.5 7.5 0 1 0 15 0 a7.5 7.5 0 1 0 -15 0zM85.77 940.2 a7.5 7.5 0 1 0 15 0 a7.5 7.5 0 1 0 -15 0zM20.82 977.7 a7.5 7.5 0 1 0 15 0 a7.5 7.5 0 1 0 -15 0zM-44.13 940.2 a7.5 7.5 0 1 0 15 0 a7.5 7.5 0 1 0 -15 0zM-44.13 865.2 a7.5 7.5 0 1 0 15 0 a7.5 7.5 0 1 0 -15 0zM215.68 415.2 a7.5 7.5 0 1 0 15 0 a7.5 7.5 0 1 0 -15 0zM215.68 490.2 a7.5 7.5 0 1 0 15 0 a7.5 7.5 0 1 0 -15 0zM280.63 527.7 a7.5 7.5 0 1 0 15 0 a7.5 7.5 0 1 0 -15 0zM280.63 602.7 a7.5 7.5 0 1 0 15 0 a7.5 7.5 0 1 0 -15 0zM215.68 640.2 a7.5 7.5 0 1 0 15 0 a7.5 7.5 0 1 0 -15 0zM215.68 715.2 a7.5 7.5 0 1 0 15 0 a7.5 7.5 0 1 0 -15 0zM215.68 865.2 a7.5 7.5 0 1 0 15 0 a7.5 7.5 0 1 0 -15 0zM215.68 940.2 a7.5 7.5 0 1 0 15 0 a7.5 7.5 0 1 0 -15 0zM150.73 977.7 a7.5 7.5 0 1 0 15 0 a7.5 7.5 0 1 0 -15 0zM345.59 490.2 a7.5 7.5 0 1 0 15 0 a7.5 7.5 0 1 0 -15 0zM410.54 527.7 a7.5 7.5 0 1 0 15 0 a7.5 7.5 0 1 0 -15 0zM410.54 602.7 a7.5 7.5 0 1 0 15 0 a7.5 7.5 0 1 0 -15 0zM345.59 640.2 a7.5 7.5 0 1 0 15 0 a7.5 7.5 0 1 0 -15 0zM345.59 715.2 a7.5 7.5 0 1 0 15 0 a7.5 7.5 0 1 0 -15 0zM280.63 752.7 a7.5 7.5 0 1 0 15 0 a7.5 7.5 0 1 0 -15 0zM410.54 752.7 a7.5 7.5 0 1 0 15 0 a7.5 7.5 0 1 0 -15 0zM410.54 827.7 a7.5 7.5 0 1 0 15 0 a7.5 7.5 0 1 0 -15 0zM345.59 865.2 a7.5 7.5 0 1 0 15 0 a7.5 7.5 0 1 0 -15 0zM280.63 827.7 a7.5 7.5 0 1 0 15 0 a7.5 7.5 0 1 0 -15 0zM345.59 940.2 a7.5 7.5 0 1 0 15 0 a7.5 7.5 0 1 0 -15 0zM280.63 977.7 a7.5 7.5 0 1 0 15 0 a7.5 7.5 0 1 0 -15 0zM410.54 -72.3 a7.5 7.5 0 1 0 15 0 a7.5 7.5 0 1 0 -15 0zM475.5 -34.8 a7.5 7.5 0 1 0 15 0 a7.5 7.5 0 1 0 -15 0zM475.5 40.2 a7.5 7.5 0 1 0 15 0 a7.5 7.5 0 1 0 -15 0zM410.54 77.7 a7.5 7.5 0 1 0 15 0 a7.5 7.5 0 1 0 -15 0zM345.59 40.2 a7.5 7.5 0 1 0 15 0 a7.5 7.5 0 1 0 -15 0zM345.59 -34.8 a7.5 7.5 0 1 0 15 0 a7.5 7.5 0 1 0 -15 0zM410.54 377.7 a7.5 7.5 0 1 0 15 0 a7.5 7.5 0 1 0 -15 0zM475.5 415.2 a7.5 7.5 0 1 0 15 0 a7.5 7.5 0 1 0 -15 0zM475.5 490.2 a7.5 7.5 0 1 0 15 0 a7.5 7.5 0 1 0 -15 0zM345.59 415.2 a7.5 7.5 0 1 0 15 0 a7.5 7.5 0 1 0 -15 0zM540.45 527.7 a7.5 7.5 0 1 0 15 0 a7.5 7.5 0 1 0 -15 0zM540.45 602.7 a7.5 7.5 0 1 0 15 0 a7.5 7.5 0 1 0 -15 0zM475.5 640.2 a7.5 7.5 0 1 0 15 0 a7.5 7.5 0 1 0 -15 0zM540.45 152.7 a7.5 7.5 0 1 0 15 0 a7.5 7.5 0 1 0 -15 0zM605.4 190.2 a7.5 7.5 0 1 0 15 0 a7.5 7.5 0 1 0 -15 0zM605.4 265.2 a7.5 7.5 0 1 0 15 0 a7.5 7.5 0 1 0 -15 0zM540.45 302.7 a7.5 7.5 0 1 0 15 0 a7.5 7.5 0 1 0 -15 0zM475.5 265.2 a7.5 7.5 0 1 0 15 0 a7.5 7.5 0 1 0 -15 0zM475.5 190.2 a7.5 7.5 0 1 0 15 0 a7.5 7.5 0 1 0 -15 0zM735.31 265.2 a7.5 7.5 0 1 0 15 0 a7.5 7.5 0 1 0 -15 0zM800.27 302.7 a7.5 7.5 0 1 0 15 0 a7.5 7.5 0 1 0 -15 0zM800.27 377.7 a7.5 7.5 0 1 0 15 0 a7.5 7.5 0 1 0 -15 0zM735.31 415.2 a7.5 7.5 0 1 0 15 0 a7.5 7.5 0 1 0 -15 0zM670.36 377.7 a7.5 7.5 0 1 0 15 0 a7.5 7.5 0 1 0 -15 0zM670.36 302.7 a7.5 7.5 0 1 0 15 0 a7.5 7.5 0 1 0 -15 0zM735.31 490.2 a7.5 7.5 0 1 0 15 0 a7.5 7.5 0 1 0 -15 0zM670.36 527.7 a7.5 7.5 0 1 0 15 0 a7.5 7.5 0 1 0 -15 0zM605.4 490.2 a7.5 7.5 0 1 0 15 0 a7.5 7.5 0 1 0 -15 0zM605.4 415.2 a7.5 7.5 0 1 0 15 0 a7.5 7.5 0 1 0 -15 0zM800.27 527.7 a7.5 7.5 0 1 0 15 0 a7.5 7.5 0 1 0 -15 0zM800.27 602.7 a7.5 7.5 0 1 0 15 0 a7.5 7.5 0 1 0 -15 0zM735.31 640.2 a7.5 7.5 0 1 0 15 0 a7.5 7.5 0 1 0 -15 0zM670.36 602.7 a7.5 7.5 0 1 0 15 0 a7.5 7.5 0 1 0 -15 0zM735.31 940.2 a7.5 7.5 0 1 0 15 0 a7.5 7.5 0 1 0 -15 0zM800.27 977.7 a7.5 7.5 0 1 0 15 0 a7.5 7.5 0 1 0 -15 0zM800.27 1052.7 a7.5 7.5 0 1 0 15 0 a7.5 7.5 0 1 0 -15 0zM735.31 1090.2 a7.5 7.5 0 1 0 15 0 a7.5 7.5 0 1 0 -15 0zM670.36 1052.7 a7.5 7.5 0 1 0 15 0 a7.5 7.5 0 1 0 -15 0zM670.36 977.7 a7.5 7.5 0 1 0 15 0 a7.5 7.5 0 1 0 -15 0zM800.26 -72.3 a7.5 7.5 0 1 0 15 0 a7.5 7.5 0 1 0 -15 0zM865.22 -34.8 a7.5 7.5 0 1 0 15 0 a7.5 7.5 0 1 0 -15 0zM865.22 40.2 a7.5 7.5 0 1 0 15 0 a7.5 7.5 0 1 0 -15 0zM800.26 77.7 a7.5 7.5 0 1 0 15 0 a7.5 7.5 0 1 0 -15 0zM735.31 40.2 a7.5 7.5 0 1 0 15 0 a7.5 7.5 0 1 0 -15 0zM735.31 -34.8 a7.5 7.5 0 1 0 15 0 a7.5 7.5 0 1 0 -15 0zM865.22 490.2 a7.5 7.5 0 1 0 15 0 a7.5 7.5 0 1 0 -15 0zM930.17 527.7 a7.5 7.5 0 1 0 15 0 a7.5 7.5 0 1 0 -15 0zM930.17 602.7 a7.5 7.5 0 1 0 15 0 a7.5 7.5 0 1 0 -15 0zM865.22 640.2 a7.5 7.5 0 1 0 15 0 a7.5 7.5 0 1 0 -15 0zM800.26 602.7 a7.5 7.5 0 1 0 15 0 a7.5 7.5 0 1 0 -15 0zM800.26 527.7 a7.5 7.5 0 1 0 15 0 a7.5 7.5 0 1 0 -15 0zM865.22 715.2 a7.5 7.5 0 1 0 15 0 a7.5 7.5 0 1 0 -15 0zM930.17 752.7 a7.5 7.5 0 1 0 15 0 a7.5 7.5 0 1 0 -15 0zM930.17 827.7 a7.5 7.5 0 1 0 15 0 a7.5 7.5 0 1 0 -15 0zM865.22 865.2 a7.5 7.5 0 1 0 15 0 a7.5 7.5 0 1 0 -15 0zM800.26 827.7 a7.5 7.5 0 1 0 15 0 a7.5 7.5 0 1 0 -15 0zM800.26 752.7 a7.5 7.5 0 1 0 15 0 a7.5 7.5 0 1 0 -15 0zM865.22 940.2 a7.5 7.5 0 1 0 15 0 a7.5 7.5 0 1 0 -15 0zM800.26 977.7 a7.5 7.5 0 1 0 15 0 a7.5 7.5 0 1 0 -15 0zM735.31 865.2 a7.5 7.5 0 1 0 15 0 a7.5 7.5 0 1 0 -15 0zM995.13 40.2 a7.5 7.5 0 1 0 15 0 a7.5 7.5 0 1 0 -15 0zM1060.08 77.7 a7.5 7.5 0 1 0 15 0 a7.5 7.5 0 1 0 -15 0zM1060.08 152.7 a7.5 7.5 0 1 0 15 0 a7.5 7.5 0 1 0 -15 0zM995.13 190.2 a7.5 7.5 0 1 0 15 0 a7.5 7.5 0 1 0 -15 0zM930.17 152.7 a7.5 7.5 0 1 0 15 0 a7.5 7.5 0 1 0 -15 0zM930.17 77.7 a7.5 7.5 0 1 0 15 0 a7.5 7.5 0 1 0 -15 0zM930.17 377.7 a7.5 7.5 0 1 0 15 0 a7.5 7.5 0 1 0 -15 0zM995.13 415.2 a7.5 7.5 0 1 0 15 0 a7.5 7.5 0 1 0 -15 0zM995.13 490.2 a7.5 7.5 0 1 0 15 0 a7.5 7.5 0 1 0 -15 0zM865.22 415.2 a7.5 7.5 0 1 0 15 0 a7.5 7.5 0 1 0 -15 0zM995.13 640.2 a7.5 7.5 0 1 0 15 0 a7.5 7.5 0 1 0 -15 0zM995.13 715.2 a7.5 7.5 0 1 0 15 0 a7.5 7.5 0 1 0 -15 0zM995.13 865.2 a7.5 7.5 0 1 0 15 0 a7.5 7.5 0 1 0 -15 0zM995.13 940.2 a7.5 7.5 0 1 0 15 0 a7.5 7.5 0 1 0 -15 0zM930.17 977.7 a7.5 7.5 0 1 0 15 0 a7.5 7.5 0 1 0 -15 0zM1060.08 977.7 a7.5 7.5 0 1 0 15 0 a7.5 7.5 0 1 0 -15 0zM1060.08 1052.7 a7.5 7.5 0 1 0 15 0 a7.5 7.5 0 1 0 -15 0zM995.13 1090.2 a7.5 7.5 0 1 0 15 0 a7.5 7.5 0 1 0 -15 0zM930.17 1052.7 a7.5 7.5 0 1 0 15 0 a7.5 7.5 0 1 0 -15 0zM1125.03 265.2 a7.5 7.5 0 1 0 15 0 a7.5 7.5 0 1 0 -15 0zM1189.99 302.7 a7.5 7.5 0 1 0 15 0 a7.5 7.5 0 1 0 -15 0zM1189.99 377.7 a7.5 7.5 0 1 0 15 0 a7.5 7.5 0 1 0 -15 0zM1125.03 415.2 a7.5 7.5 0 1 0 15 0 a7.5 7.5 0 1 0 -15 0zM1060.08 377.7 a7.5 7.5 0 1 0 15 0 a7.5 7.5 0 1 0 -15 0zM1060.08 302.7 a7.5 7.5 0 1 0 15 0 a7.5 7.5 0 1 0 -15 0zM1125.03 715.2 a7.5 7.5 0 1 0 15 0 a7.5 7.5 0 1 0 -15 0zM1189.99 752.7 a7.5 7.5 0 1 0 15 0 a7.5 7.5 0 1 0 -15 0zM1189.99 827.7 a7.5 7.5 0 1 0 15 0 a7.5 7.5 0 1 0 -15 0zM1125.03 865.2 a7.5 7.5 0 1 0 15 0 a7.5 7.5 0 1 0 -15 0zM1060.08 827.7 a7.5 7.5 0 1 0 15 0 a7.5 7.5 0 1 0 -15 0zM1060.08 752.7 a7.5 7.5 0 1 0 15 0 a7.5 7.5 0 1 0 -15 0zM1125.03 940.2 a7.5 7.5 0 1 0 15 0 a7.5 7.5 0 1 0 -15 0zM1189.99 977.7 a7.5 7.5 0 1 0 15 0 a7.5 7.5 0 1 0 -15 0zM1189.99 1052.7 a7.5 7.5 0 1 0 15 0 a7.5 7.5 0 1 0 -15 0zM1125.03 1090.2 a7.5 7.5 0 1 0 15 0 a7.5 7.5 0 1 0 -15 0zM1254.94 265.2 a7.5 7.5 0 1 0 15 0 a7.5 7.5 0 1 0 -15 0zM1319.89 302.7 a7.5 7.5 0 1 0 15 0 a7.5 7.5 0 1 0 -15 0zM1319.89 377.7 a7.5 7.5 0 1 0 15 0 a7.5 7.5 0 1 0 -15 0zM1254.94 415.2 a7.5 7.5 0 1 0 15 0 a7.5 7.5 0 1 0 -15 0zM1254.94 490.2 a7.5 7.5 0 1 0 15 0 a7.5 7.5 0 1 0 -15 0zM1319.89 527.7 a7.5 7.5 0 1 0 15 0 a7.5 7.5 0 1 0 -15 0zM1319.89 602.7 a7.5 7.5 0 1 0 15 0 a7.5 7.5 0 1 0 -15 0zM1254.94 640.2 a7.5 7.5 0 1 0 15 0 a7.5 7.5 0 1 0 -15 0zM1189.99 602.7 a7.5 7.5 0 1 0 15 0 a7.5 7.5 0 1 0 -15 0zM1189.99 527.7 a7.5 7.5 0 1 0 15 0 a7.5 7.5 0 1 0 -15 0zM1254.94 715.2 a7.5 7.5 0 1 0 15 0 a7.5 7.5 0 1 0 -15 0zM1125.03 640.2 a7.5 7.5 0 1 0 15 0 a7.5 7.5 0 1 0 -15 0zM1319.89 152.7 a7.5 7.5 0 1 0 15 0 a7.5 7.5 0 1 0 -15 0zM1384.85 190.2 a7.5 7.5 0 1 0 15 0 a7.5 7.5 0 1 0 -15 0zM1384.85 265.2 a7.5 7.5 0 1 0 15 0 a7.5 7.5 0 1 0 -15 0zM1254.94 190.2 a7.5 7.5 0 1 0 15 0 a7.5 7.5 0 1 0 -15 0zM1319.89 827.7 a7.5 7.5 0 1 0 15 0 a7.5 7.5 0 1 0 -15 0zM1384.85 865.2 a7.5 7.5 0 1 0 15 0 a7.5 7.5 0 1 0 -15 0zM1384.85 940.2 a7.5 7.5 0 1 0 15 0 a7.5 7.5 0 1 0 -15 0zM1319.89 977.7 a7.5 7.5 0 1 0 15 0 a7.5 7.5 0 1 0 -15 0zM1254.94 940.2 a7.5 7.5 0 1 0 15 0 a7.5 7.5 0 1 0 -15 0zM1254.94 865.2 a7.5 7.5 0 1 0 15 0 a7.5 7.5 0 1 0 -15 0zM1449.8 977.7 a7.5 7.5 0 1 0 15 0 a7.5 7.5 0 1 0 -15 0zM1449.8 1052.7 a7.5 7.5 0 1 0 15 0 a7.5 7.5 0 1 0 -15 0zM1384.85 1090.2 a7.5 7.5 0 1 0 15 0 a7.5 7.5 0 1 0 -15 0zM1319.89 1052.7 a7.5 7.5 0 1 0 15 0 a7.5 7.5 0 1 0 -15 0zM1514.76 40.2 a7.5 7.5 0 1 0 15 0 a7.5 7.5 0 1 0 -15 0zM1579.71 77.7 a7.5 7.5 0 1 0 15 0 a7.5 7.5 0 1 0 -15 0zM1579.71 152.7 a7.5 7.5 0 1 0 15 0 a7.5 7.5 0 1 0 -15 0zM1514.76 190.2 a7.5 7.5 0 1 0 15 0 a7.5 7.5 0 1 0 -15 0zM1449.8 152.7 a7.5 7.5 0 1 0 15 0 a7.5 7.5 0 1 0 -15 0zM1449.8 77.7 a7.5 7.5 0 1 0 15 0 a7.5 7.5 0 1 0 -15 0zM1514.76 490.2 a7.5 7.5 0 1 0 15 0 a7.5 7.5 0 1 0 -15 0zM1579.71 527.7 a7.5 7.5 0 1 0 15 0 a7.5 7.5 0 1 0 -15 0zM1579.71 602.7 a7.5 7.5 0 1 0 15 0 a7.5 7.5 0 1 0 -15 0zM1514.76 640.2 a7.5 7.5 0 1 0 15 0 a7.5 7.5 0 1 0 -15 0zM1449.8 602.7 a7.5 7.5 0 1 0 15 0 a7.5 7.5 0 1 0 -15 0zM1449.8 527.7 a7.5 7.5 0 1 0 15 0 a7.5 7.5 0 1 0 -15 0zM1514.76 715.2 a7.5 7.5 0 1 0 15 0 a7.5 7.5 0 1 0 -15 0zM1449.8 752.7 a7.5 7.5 0 1 0 15 0 a7.5 7.5 0 1 0 -15 0zM1384.85 715.2 a7.5 7.5 0 1 0 15 0 a7.5 7.5 0 1 0 -15 0zM1384.85 640.2 a7.5 7.5 0 1 0 15 0 a7.5 7.5 0 1 0 -15 0zM1579.71 752.7 a7.5 7.5 0 1 0 15 0 a7.5 7.5 0 1 0 -15 0zM1579.71 827.7 a7.5 7.5 0 1 0 15 0 a7.5 7.5 0 1 0 -15 0zM1514.76 865.2 a7.5 7.5 0 1 0 15 0 a7.5 7.5 0 1 0 -15 0zM1449.8 827.7 a7.5 7.5 0 1 0 15 0 a7.5 7.5 0 1 0 -15 0z" fill="rgba(119, 20, 241, 0.35)"></path>
    <path d="M82.02 68.35L125.33 93.35L125.33 143.35L82.02 168.35L38.72 143.35L38.72 93.35zM82.02 218.35L125.33 243.35L125.33 293.35L82.02 318.35L38.72 293.35L38.72 243.35zM82.02 518.35L125.33 543.35L125.33 593.35L82.02 618.35L38.72 593.35L38.72 543.35zM38.72 593.35L82.02 618.35L82.02 668.35L38.72 693.35L-4.58 668.35L-4.58 618.35zM125.33 143.35L168.63 168.35L168.63 218.35L125.33 243.35L82.02 218.35L82.02 168.35zM168.63 368.35L211.93 393.35L211.93 443.35L168.63 468.35L125.33 443.35L125.33 393.35zM168.63 818.35L211.93 843.35L211.93 893.35L168.63 918.35L125.33 893.35L125.33 843.35zM125.33 893.35L168.63 918.35L168.63 968.35L125.33 993.35L82.02 968.35L82.02 918.35zM211.93 -6.65L255.23 18.35L255.23 68.35L211.93 93.35L168.63 68.35L168.63 18.35zM255.23 68.35L298.53 93.35L298.53 143.35L255.23 168.35L211.93 143.35L211.93 93.35zM255.23 668.35L298.53 693.35L298.53 743.35L255.23 768.35L211.93 743.35L211.93 693.35zM298.53 -6.65L341.84 18.35L341.84 68.35L298.53 93.35L255.23 68.35L255.23 18.35zM341.84 368.35L385.14 393.35L385.14 443.35L341.84 468.35L298.53 443.35L298.53 393.35zM341.84 518.35L385.14 543.35L385.14 593.35L341.84 618.35L298.53 593.35L298.53 543.35zM298.53 743.35L341.84 768.35L341.84 818.35L298.53 843.35L255.23 818.35L255.23 768.35zM428.44 218.35L471.75 243.35L471.75 293.35L428.44 318.35L385.14 293.35L385.14 243.35zM385.14 443.35L428.44 468.35L428.44 518.35L385.14 543.35L341.84 518.35L341.84 468.35zM428.44 518.35L471.75 543.35L471.75 593.35L428.44 618.35L385.14 593.35L385.14 543.35zM471.75 -6.65L515.05 18.35L515.05 68.35L471.75 93.35L428.44 68.35L428.44 18.35zM471.75 893.35L515.05 918.35L515.05 968.35L471.75 993.35L428.44 968.35L428.44 918.35zM601.65 68.35L644.96 93.35L644.96 143.35L601.65 168.35L558.35 143.35L558.35 93.35zM558.35 443.35L601.65 468.35L601.65 518.35L558.35 543.35L515.05 518.35L515.05 468.35zM644.96 143.35L688.26 168.35L688.26 218.35L644.96 243.35L601.65 218.35L601.65 168.35zM688.26 218.35L731.56 243.35L731.56 293.35L688.26 318.35L644.96 293.35L644.96 243.35zM688.26 368.35L731.56 393.35L731.56 443.35L688.26 468.35L644.96 443.35L644.96 393.35zM644.96 443.35L688.26 468.35L688.26 518.35L644.96 543.35L601.65 518.35L601.65 468.35zM688.26 668.35L731.56 693.35L731.56 743.35L688.26 768.35L644.96 743.35L644.96 693.35zM688.26 818.35L731.56 843.35L731.56 893.35L688.26 918.35L644.96 893.35L644.96 843.35zM688.26 968.35L731.56 993.35L731.56 1043.35L688.26 1068.35L644.96 1043.35L644.96 993.35zM731.56 -6.65L774.86 18.35L774.86 68.35L731.56 93.35L688.26 68.35L688.26 18.35zM774.86 68.35L818.17 93.35L818.17 143.35L774.86 168.35L731.56 143.35L731.56 93.35zM774.86 218.35L818.17 243.35L818.17 293.35L774.86 318.35L731.56 293.35L731.56 243.35zM731.56 293.35L774.86 318.35L774.86 368.35L731.56 393.35L688.26 368.35L688.26 318.35zM818.17 143.35L861.47 168.35L861.47 218.35L818.17 243.35L774.86 218.35L774.86 168.35zM818.17 443.35L861.47 468.35L861.47 518.35L818.17 543.35L774.86 518.35L774.86 468.35zM861.47 968.35L904.77 993.35L904.77 1043.35L861.47 1068.35L818.17 1043.35L818.17 993.35zM948.07 218.35L991.38 243.35L991.38 293.35L948.07 318.35L904.77 293.35L904.77 243.35zM1034.68 368.35L1077.98 393.35L1077.98 443.35L1034.68 468.35L991.38 443.35L991.38 393.35zM991.38 443.35L1034.68 468.35L1034.68 518.35L991.38 543.35L948.07 518.35L948.07 468.35zM1034.68 668.35L1077.98 693.35L1077.98 743.35L1034.68 768.35L991.38 743.35L991.38 693.35zM1077.98 -6.65L1121.28 18.35L1121.28 68.35L1077.98 93.35L1034.68 68.35L1034.68 18.35zM1121.28 368.35L1164.59 393.35L1164.59 443.35L1121.28 468.35L1077.98 443.35L1077.98 393.35zM1164.59 -6.65L1207.89 18.35L1207.89 68.35L1164.59 93.35L1121.28 68.35L1121.28 18.35zM1164.59 443.35L1207.89 468.35L1207.89 518.35L1164.59 543.35L1121.28 518.35L1121.28 468.35zM1251.19 143.35L1294.49 168.35L1294.49 218.35L1251.19 243.35L1207.89 218.35L1207.89 168.35zM1251.19 293.35L1294.49 318.35L1294.49 368.35L1251.19 393.35L1207.89 368.35L1207.89 318.35zM1294.49 668.35L1337.8 693.35L1337.8 743.35L1294.49 768.35L1251.19 743.35L1251.19 693.35zM1251.19 893.35L1294.49 918.35L1294.49 968.35L1251.19 993.35L1207.89 968.35L1207.89 918.35zM1294.49 968.35L1337.8 993.35L1337.8 1043.35L1294.49 1068.35L1251.19 1043.35L1251.19 993.35zM1337.8 293.35L1381.1 318.35L1381.1 368.35L1337.8 393.35L1294.49 368.35L1294.49 318.35zM1337.8 443.35L1381.1 468.35L1381.1 518.35L1337.8 543.35L1294.49 518.35L1294.49 468.35zM1381.1 518.35L1424.4 543.35L1424.4 593.35L1381.1 618.35L1337.8 593.35L1337.8 543.35zM1381.1 968.35L1424.4 993.35L1424.4 1043.35L1381.1 1068.35L1337.8 1043.35L1337.8 993.35zM1467.7 68.35L1511.01 93.35L1511.01 143.35L1467.7 168.35L1424.4 143.35L1424.4 93.35zM1424.4 293.35L1467.7 318.35L1467.7 368.35L1424.4 393.35L1381.1 368.35L1381.1 318.35zM1467.7 818.35L1511.01 843.35L1511.01 893.35L1467.7 918.35L1424.4 893.35L1424.4 843.35zM1424.4 893.35L1467.7 918.35L1467.7 968.35L1424.4 993.35L1381.1 968.35L1381.1 918.35z" stroke="rgba(119, 20, 241, 1)" stroke-width="2"></path>
  </g>
  <defs>
    <mask id="SvgjsMask1019">
      <rect width="1440" height="1000" fill="#ffffff"></rect>
    </mask>
  </defs>
</svg>