<?xml version="1.0" standalone="no"?><svg xmlns:xlink="http://www.w3.org/1999/xlink" xmlns="http://www.w3.org/2000/svg" viewBox="0 0 1000 384.6119929453262" preserveAspectRatio="xMaxYMax slice"><g transform="scale(0.8818342151675485)"><rect x="0" y="0" width="1134" height="436.15384615384613" fill="#ffffff"/><rect x="174.46" y="87.23" width="87.23" height="87.23" fill="#8227f2"/><polygon points="261.69,87.23 261.69,174.46 174.46,174.46" fill="#7f7f7f"/><rect x="261.6923076923077" y="87.23076923076923" width="87.23076923076923" height="87.23076923076923" fill="#ffffff"/><rect x="261.69" y="130.85" width="43.62" height="43.62" fill="#c8a1f9"/><polygon points="261.69,130.85 305.31,174.47 261.69,174.47" fill="#3f3f3f"/><rect x="436.15" y="87.23" width="87.23" height="87.23" fill="#3d3d3d"/><g transform="translate(436.15,87.23) scale(4.3615) rotate(0)"><path d="M10 5L5 0L0 5L5 10L0 15L5 20L10 15L15 20L20 15L15 10L20 5L15 0L10 5Z" fill="#7e21f2"/></g><rect x="174.46153846153845" y="174.46153846153845" width="87.23076923076923" height="87.23076923076923" fill="#ffffff"/><rect x="174.46" y="218.08" width="43.62" height="43.62" fill="#7a1af1"/><rect x="174.46" y="218.08" width="43.62" height="43.62" fill="#232323"/><rect x="523.38" y="174.46" width="87.23" height="87.23" fill="#f4ecfe"/><polygon points="523.38,174.46 610.61,174.46 610.61,261.69" fill="#292929"/><rect x="610.62" y="174.46" width="87.23" height="87.23" fill="#862ef3"/><g transform="translate(610.62,174.46) scale(4.3615) rotate(0)"><path d="M10 5L5 0L0 5L5 10L0 15L5 20L10 15L15 20L20 15L15 10L20 5L15 0L10 5Z" fill="#969696"/></g><rect x="697.85" y="174.46" width="87.23" height="87.23" fill="#6a6a6a"/><g transform="translate(697.85,174.46) scale(4.3615) rotate(0)"><path d="M10 5L5 0L0 5L5 10L0 15L5 20L10 15L15 20L20 15L15 10L20 5L15 0L10 5Z" fill="#bcbcbc"/></g><rect x="785.08" y="174.46" width="87.23" height="87.23" fill="#a564f6"/><rect x="785.08" y="174.46" width="87.23" height="87.23" fill="#444444"/><rect x="872.31" y="174.46" width="87.23" height="87.23" fill="#b4b4b4"/><rect x="872.31" y="174.46" width="87.23" height="87.23" fill="#3f3f3f"/><rect x="0" y="261.69" width="87.23" height="87.23" fill="#d6d6d6"/><g transform="translate(0,261.69) scale(4.3615) rotate(0)"><path fill-rule="evenodd" clip-rule="evenodd" d="M10 20C15.5228 20 20 15.5228 20 10C20 4.47715 15.5228 0 10 0C4.47715 0 0 4.47715 0 10C0 15.5228 4.47715 20 10 20ZM10 17C13.866 17 17 13.866 17 10C17 6.13401 13.866 3 10 3C6.13401 3 3 6.13401 3 10C3 13.866 6.13401 17 10 17Z" fill="#8e8e8e"/></g><rect x="87.23" y="261.69" width="87.23" height="87.23" fill="#d8bbfb"/><rect x="87.23" y="261.69" width="87.23" height="87.23" fill="#e9e9e9"/><rect x="174.46" y="261.69" width="87.23" height="87.23" fill="#8b36f3"/><polygon points="174.46,261.69 261.69,348.92 174.46,348.92" fill="#e8d7fd"/><rect x="261.69" y="261.69" width="87.23" height="87.23" fill="#323232"/><g transform="translate(261.69,261.69) scale(4.3615) rotate(0)"><path d="M10 5L5 0L0 5L5 10L0 15L5 20L10 15L15 20L20 15L15 10L20 5L15 0L10 5Z" fill="#8730f3"/></g><rect x="348.92" y="261.69" width="87.23" height="87.23" fill="#fefdff"/><g transform="translate(348.92,261.69) scale(4.3615) rotate(0)"><path d="M10 5L5 0L0 5L5 10L0 15L5 20L10 15L15 20L20 15L15 10L20 5L15 0L10 5Z" fill="#121212"/></g><rect x="523.38" y="261.69" width="87.23" height="87.23" fill="#d8bcfb"/><g transform="translate(523.38,261.69) scale(4.3615) rotate(0)"><path d="M10 5L5 0L0 5L5 10L0 15L5 20L10 15L15 20L20 15L15 10L20 5L15 0L10 5Z" fill="#242424"/></g><rect x="610.62" y="261.69" width="87.23" height="87.23" fill="#a25ef5"/><g transform="translate(610.62,261.69) scale(4.3615) rotate(0)"><path d="M10 5L5 0L0 5L5 10L0 15L5 20L10 15L15 20L20 15L15 10L20 5L15 0L10 5Z" fill="#4c4c4c"/></g><rect x="697.8461538461538" y="261.6923076923077" width="87.23076923076923" height="87.23076923076923" fill="#ffffff"/><rect x="697.85" y="261.69" width="43.62" height="43.62" fill="#b37cf7"/><g transform="translate(697.85,261.69) scale(2.181) rotate(0)"><path d="M10 5L5 0L0 5L5 10L0 15L5 20L10 15L15 20L20 15L15 10L20 5L15 0L10 5Z" fill="#909090"/></g><rect x="741.46" y="261.69" width="43.62" height="43.62" fill="#cfabfa"/><g transform="translate(741.46,261.69) scale(2.181) rotate(0)"><path d="M10 5L5 0L0 5L5 10L0 15L5 20L10 15L15 20L20 15L15 10L20 5L15 0L10 5Z" fill="#b177f7"/></g><rect x="741.46" y="305.31" width="43.62" height="43.62" fill="#f0f0f0"/><g transform="translate(741.46,305.31) scale(2.181) rotate(0)"><path d="M10 5L5 0L0 5L5 10L0 15L5 20L10 15L15 20L20 15L15 10L20 5L15 0L10 5Z" fill="#8730f3"/></g><rect x="785.08" y="261.69" width="87.23" height="87.23" fill="#d7bafb"/><polygon points="785.08,261.69 872.3100000000001,261.69 872.3100000000001,348.92" fill="#cca7fa"/><rect x="872.31" y="261.69" width="87.23" height="87.23" fill="#e2ccfc"/><rect x="872.31" y="261.69" width="87.23" height="87.23" fill="#7d1ef2"/><rect x="959.54" y="261.69" width="87.23" height="87.23" fill="#949494"/><rect x="959.54" y="261.69" width="87.23" height="87.23" fill="#f0e6fd"/><rect x="1046.7692307692307" y="261.6923076923077" width="87.23076923076923" height="87.23076923076923" fill="#ffffff"/><rect x="1046.77" y="261.69" width="43.62" height="43.62" fill="#b783f8"/><polygon points="1090.3899999999999,261.69 1090.3899999999999,305.31 1046.77,305.31" fill="#f3ebfe"/><rect x="1090.38" y="261.69" width="43.62" height="43.62" fill="#5a5a5a"/><g transform="translate(1090.38,261.69) scale(2.181) rotate(0)"><path fill-rule="evenodd" clip-rule="evenodd" d="M10 20C15.5228 20 20 15.5228 20 10C20 4.47715 15.5228 0 10 0C4.47715 0 0 4.47715 0 10C0 15.5228 4.47715 20 10 20ZM10 17C13.866 17 17 13.866 17 10C17 6.13401 13.866 3 10 3C6.13401 3 3 6.13401 3 10C3 13.866 6.13401 17 10 17Z" fill="#3c3c3c"/></g><rect x="1046.77" y="305.31" width="43.62" height="43.62" fill="#b985f8"/><g transform="translate(1046.77,305.31) scale(2.181) rotate(0)"><path d="M10 5L5 0L0 5L5 10L0 15L5 20L10 15L15 20L20 15L15 10L20 5L15 0L10 5Z" fill="#838383"/></g><rect x="1090.38" y="305.31" width="43.62" height="43.62" fill="#fdfbff"/><g transform="translate(1090.38,305.31) scale(2.181) rotate(0)"><path fill-rule="evenodd" clip-rule="evenodd" d="M10 20C15.5228 20 20 15.5228 20 10C20 4.47715 15.5228 0 10 0C4.47715 0 0 4.47715 0 10C0 15.5228 4.47715 20 10 20ZM10 17C13.866 17 17 13.866 17 10C17 6.13401 13.866 3 10 3C6.13401 3 3 6.13401 3 10C3 13.866 6.13401 17 10 17Z" fill="#4e4e4e"/></g><rect x="0" y="348.92" width="87.23" height="87.23" fill="#9c54f5"/><g transform="translate(0,348.92) scale(4.3615) rotate(0)"><path d="M10 5L5 0L0 5L5 10L0 15L5 20L10 15L15 20L20 15L15 10L20 5L15 0L10 5Z" fill="#cdcdcd"/></g><rect x="87.23" y="348.92" width="87.23" height="87.23" fill="#cfadfa"/><rect x="87.23" y="348.92" width="87.23" height="87.23" fill="#8d39f3"/><rect x="174.46" y="348.92" width="87.23" height="87.23" fill="#b884f8"/><g transform="translate(174.46,348.92) scale(4.3615) rotate(0)"><path fill-rule="evenodd" clip-rule="evenodd" d="M10 20C15.5228 20 20 15.5228 20 10C20 4.47715 15.5228 0 10 0C4.47715 0 0 4.47715 0 10C0 15.5228 4.47715 20 10 20ZM10 17C13.866 17 17 13.866 17 10C17 6.13401 13.866 3 10 3C6.13401 3 3 6.13401 3 10C3 13.866 6.13401 17 10 17Z" fill="#be90f8"/></g><rect x="261.69" y="348.92" width="87.23" height="87.23" fill="#8d8d8d"/><g transform="translate(261.69,348.92) scale(4.3615) rotate(0)"><path fill-rule="evenodd" clip-rule="evenodd" d="M10 20C15.5228 20 20 15.5228 20 10C20 4.47715 15.5228 0 10 0C4.47715 0 0 4.47715 0 10C0 15.5228 4.47715 20 10 20ZM10 17C13.866 17 17 13.866 17 10C17 6.13401 13.866 3 10 3C6.13401 3 3 6.13401 3 10C3 13.866 6.13401 17 10 17Z" fill="#e3e3e3"/></g><rect x="348.9230769230769" y="348.9230769230769" width="87.23076923076923" height="87.23076923076923" fill="#ffffff"/><rect x="348.92" y="348.92" width="43.62" height="43.62" fill="#e5d2fc"/><g transform="translate(348.92,348.92) scale(2.181) rotate(0)"><path d="M10 5L5 0L0 5L5 10L0 15L5 20L10 15L15 20L20 15L15 10L20 5L15 0L10 5Z" fill="#bf91f8"/></g><rect x="392.54" y="348.92" width="43.62" height="43.62" fill="#e5d2fc"/><polygon points="392.54,348.92 436.16,348.92 392.54,392.54" fill="#a666f6"/><rect x="348.92" y="392.54" width="43.62" height="43.62" fill="#f8f3fe"/><g transform="translate(348.92,392.54) scale(2.181) rotate(0)"><path fill-rule="evenodd" clip-rule="evenodd" d="M10 20C15.5228 20 20 15.5228 20 10C20 4.47715 15.5228 0 10 0C4.47715 0 0 4.47715 0 10C0 15.5228 4.47715 20 10 20ZM10 17C13.866 17 17 13.866 17 10C17 6.13401 13.866 3 10 3C6.13401 3 3 6.13401 3 10C3 13.866 6.13401 17 10 17Z" fill="#a766f6"/></g><rect x="392.54" y="392.54" width="43.62" height="43.62" fill="#e5e5e5"/><g transform="translate(392.54,392.54) scale(2.181) rotate(0)"><path d="M10 5L5 0L0 5L5 10L0 15L5 20L10 15L15 20L20 15L15 10L20 5L15 0L10 5Z" fill="#777777"/></g><rect x="436.15384615384613" y="348.9230769230769" width="87.23076923076923" height="87.23076923076923" fill="#ffffff"/><rect x="436.15" y="348.92" width="43.62" height="43.62" fill="#7a19f1"/><g transform="translate(436.15,348.92) scale(2.181) rotate(0)"><path d="M10 5L5 0L0 5L5 10L0 15L5 20L10 15L15 20L20 15L15 10L20 5L15 0L10 5Z" fill="#bababa"/></g><rect x="479.77" y="348.92" width="43.62" height="43.62" fill="#e7d5fc"/><rect x="479.77" y="348.92" width="43.62" height="43.62" fill="#9c54f5"/><rect x="436.15" y="392.54" width="43.62" height="43.62" fill="#c5c5c5"/><g transform="translate(436.15,392.54) scale(2.181) rotate(0)"><path d="M10 5L5 0L0 5L5 10L0 15L5 20L10 15L15 20L20 15L15 10L20 5L15 0L10 5Z" fill="#131313"/></g><rect x="479.77" y="392.54" width="43.62" height="43.62" fill="#e8e8e8"/><g transform="translate(479.77,392.54) scale(2.181) rotate(0)"><path fill-rule="evenodd" clip-rule="evenodd" d="M10 20C15.5228 20 20 15.5228 20 10C20 4.47715 15.5228 0 10 0C4.47715 0 0 4.47715 0 10C0 15.5228 4.47715 20 10 20ZM10 17C13.866 17 17 13.866 17 10C17 6.13401 13.866 3 10 3C6.13401 3 3 6.13401 3 10C3 13.866 6.13401 17 10 17Z" fill="#b5b5b5"/></g><rect x="523.3846153846154" y="348.9230769230769" width="87.23076923076923" height="87.23076923076923" fill="#ffffff"/><rect x="523.38" y="348.92" width="43.62" height="43.62" fill="#6f6f6f"/><rect x="523.38" y="348.92" width="43.62" height="43.62" fill="#b27af7"/><rect x="567" y="348.92" width="43.62" height="43.62" fill="#a1a1a1"/><g transform="translate(567,348.92) scale(2.181) rotate(0)"><path d="M10 5L5 0L0 5L5 10L0 15L5 20L10 15L15 20L20 15L15 10L20 5L15 0L10 5Z" fill="#9d56f5"/></g><rect x="523.38" y="392.54" width="43.62" height="43.62" fill="#ebebeb"/><g transform="translate(523.38,392.54) scale(2.181) rotate(0)"><path fill-rule="evenodd" clip-rule="evenodd" d="M10 20C15.5228 20 20 15.5228 20 10C20 4.47715 15.5228 0 10 0C4.47715 0 0 4.47715 0 10C0 15.5228 4.47715 20 10 20ZM10 17C13.866 17 17 13.866 17 10C17 6.13401 13.866 3 10 3C6.13401 3 3 6.13401 3 10C3 13.866 6.13401 17 10 17Z" fill="#9b52f5"/></g><rect x="567" y="392.54" width="43.62" height="43.62" fill="#fcfcfc"/><polygon points="567,392.54 610.62,392.54 610.62,436.16" fill="#ac70f6"/><rect x="610.6153846153845" y="348.9230769230769" width="87.23076923076923" height="87.23076923076923" fill="#ffffff"/><rect x="610.62" y="348.92" width="43.62" height="43.62" fill="#a8a8a8"/><g transform="translate(610.62,348.92) scale(2.181) rotate(0)"><path fill-rule="evenodd" clip-rule="evenodd" d="M10 20C15.5228 20 20 15.5228 20 10C20 4.47715 15.5228 0 10 0C4.47715 0 0 4.47715 0 10C0 15.5228 4.47715 20 10 20ZM10 17C13.866 17 17 13.866 17 10C17 6.13401 13.866 3 10 3C6.13401 3 3 6.13401 3 10C3 13.866 6.13401 17 10 17Z" fill="#b681f7"/></g><rect x="654.23" y="348.92" width="43.62" height="43.62" fill="#9e9e9e"/><polygon points="654.23,348.92 697.85,392.54 654.23,392.54" fill="#7f21f2"/><rect x="610.62" y="392.54" width="43.62" height="43.62" fill="#b37cf7"/><polygon points="610.62,392.54 654.24,436.16 610.62,436.16" fill="#e8d7fd"/><rect x="654.23" y="392.54" width="43.62" height="43.62" fill="#e4e4e4"/><g transform="translate(654.23,392.54) scale(2.181) rotate(0)"><path fill-rule="evenodd" clip-rule="evenodd" d="M10 20C15.5228 20 20 15.5228 20 10C20 4.47715 15.5228 0 10 0C4.47715 0 0 4.47715 0 10C0 15.5228 4.47715 20 10 20ZM10 17C13.866 17 17 13.866 17 10C17 6.13401 13.866 3 10 3C6.13401 3 3 6.13401 3 10C3 13.866 6.13401 17 10 17Z" fill="#8b36f3"/></g><rect x="697.85" y="348.92" width="87.23" height="87.23" fill="#9e58f5"/><polygon points="697.85,348.92 785.08,348.92 785.08,436.15000000000003" fill="#8c8c8c"/><rect x="959.5384615384614" y="348.9230769230769" width="87.23076923076923" height="87.23076923076923" fill="#ffffff"/><rect x="959.54" y="348.92" width="43.62" height="43.62" fill="#4d4d4d"/><polygon points="1003.16,348.92 1003.16,392.54 959.54,392.54" fill="#974cf4"/><rect x="1003.15" y="348.92" width="43.62" height="43.62" fill="#dcc3fb"/><g transform="translate(1003.15,348.92) scale(2.181) rotate(0)"><path fill-rule="evenodd" clip-rule="evenodd" d="M10 20C15.5228 20 20 15.5228 20 10C20 4.47715 15.5228 0 10 0C4.47715 0 0 4.47715 0 10C0 15.5228 4.47715 20 10 20ZM10 17C13.866 17 17 13.866 17 10C17 6.13401 13.866 3 10 3C6.13401 3 3 6.13401 3 10C3 13.866 6.13401 17 10 17Z" fill="#e2e2e2"/></g><rect x="959.54" y="392.54" width="43.62" height="43.62" fill="#929292"/><rect x="959.54" y="392.54" width="43.62" height="43.62" fill="#e3e3e3"/><rect x="1003.15" y="392.54" width="43.62" height="43.62" fill="#9548f4"/><g transform="translate(1003.15,392.54) scale(2.181) rotate(0)"><path fill-rule="evenodd" clip-rule="evenodd" d="M10 20C15.5228 20 20 15.5228 20 10C20 4.47715 15.5228 0 10 0C4.47715 0 0 4.47715 0 10C0 15.5228 4.47715 20 10 20ZM10 17C13.866 17 17 13.866 17 10C17 6.13401 13.866 3 10 3C6.13401 3 3 6.13401 3 10C3 13.866 6.13401 17 10 17Z" fill="#8730f3"/></g><rect x="1046.77" y="348.92" width="87.23" height="87.23" fill="#bd8df8"/><polygon points="1046.77,348.92 1134,348.92 1134,436.15000000000003" fill="#a25ef5"/></g></svg>